<?xml version="1.0" standalone="no"?>
<!DOCTYPE svg PUBLIC "-//W3C//DTD SVG 20010904//EN"
 "http://www.w3.org/TR/2001/REC-SVG-20010904/DTD/svg10.dtd">
<svg version="1.0" xmlns="http://www.w3.org/2000/svg"
 width="412.000000pt" height="332.000000pt" viewBox="0 0 412.000000 332.000000"
 preserveAspectRatio="xMidYMid meet">

<g transform="translate(0.000000,332.000000) scale(0.100000,-0.100000)"
fill="#000000" stroke="none">
<path d="M1360 3261 c-5 -11 -10 -27 -10 -35 0 -18 -45 -23 -55 -6 -7 11 -332
14 -359 4 -14 -5 -16 -32 -16 -190 0 -116 4 -184 10 -184 7 0 10 -207 10 -600
l0 -600 -200 0 -199 0 -1 -335 0 -335 200 0 201 0 -6 -292 c-10 -542 -10 -636
-1 -645 5 -4 11 -2 13 5 3 6 23 13 46 14 37 1 38 2 10 5 -32 4 -33 6 -34 51
-1 42 -2 44 -9 17 -5 -19 -8 20 -8 100 -1 118 1 127 13 94 30 -83 93 -177 102
-151 8 20 20 14 19 -11 -1 -15 4 -22 16 -21 10 1 16 -3 15 -9 -2 -10 59 -45
133 -76 19 -8 -3 -10 -93 -8 -88 1 -117 -1 -117 -10 0 -16 255 -19 265 -3 9
14 1491 14 1500 0 4 -6 80 -10 196 -10 l189 0 0 185 c0 117 -4 185 -10 185 -6
0 -10 103 -10 290 l0 290 200 0 200 0 0 335 0 335 -200 0 -200 0 0 600 c0 393
3 600 10 600 6 0 10 68 10 184 0 182 0 184 -22 190 -39 10 -346 7 -353 -4 -3
-5 -16 -10 -29 -10 -16 0 -24 8 -31 33 l-10 32 -687 3 c-671 2 -687 2 -698
-17z m1010 -41 l-175 -5 124 -7 c68 -5 177 -8 243 -8 l118 0 0 -51 c0 -42 3
-50 15 -45 14 5 15 -5 11 -69 -2 -41 -6 -75 -8 -76 -1 0 -38 16 -80 35 -205
93 -555 169 -998 215 l-175 19 550 -1 c303 -1 471 -4 375 -7z m-1150 -42
c-128 -49 -208 -130 -255 -257 -12 -33 -14 -24 -13 94 0 80 3 120 8 105 7 -21
8 -19 9 18 1 39 3 42 29 43 15 0 36 4 47 9 11 5 67 9 125 9 l105 0 -55 -21z
m1888 7 l42 -7 1 -47 c2 -45 2 -46 9 -11 5 22 8 -13 9 -98 1 -87 -3 -131 -9
-127 -5 3 -10 13 -10 21 0 30 -53 118 -98 163 -41 41 -78 63 -182 109 -20 9
-1 11 85 8 61 -3 129 -7 153 -11z m-1688 -140 l0 -85 388 0 c213 0 459 -3 547
-7 l160 -8 -90 -6 c-49 -4 -202 -7 -340 -8 -165 -1 -245 -5 -235 -11 13 -8 13
-10 -2 -10 -9 0 -18 5 -20 11 -3 8 -70 13 -203 16 -110 3 -206 10 -212 16 -16
12 -18 177 -3 177 6 0 10 -35 10 -85z m-70 -82 c0 -14 7 -35 17 -45 15 -17 50
-18 686 -18 740 0 707 -3 707 62 l0 28 115 0 115 0 0 -670 c0 -369 -4 -670 -8
-670 -14 0 -22 172 -22 462 0 167 -4 269 -10 273 -7 4 -10 -84 -10 -258 0
-145 -3 -312 -7 -370 l-6 -107 -154 0 c-129 0 -153 -2 -153 -15 0 -17 11 -19
28 -5 9 7 9 7 2 -2 -15 -18 -12 -28 10 -28 10 0 24 8 30 18 8 11 10 12 7 2 -2
-8 -14 -20 -28 -27 -19 -10 -27 -9 -41 4 -10 9 -18 24 -18 35 0 17 -27 18
-722 18 l-721 0 7 383 c3 210 9 511 13 670 l6 287 79 0 c78 0 78 0 78 -27z
m-227 -945 c5 -317 4 -368 -9 -368 -12 0 -14 73 -12 533 1 583 11 509 21 -165z
m1462 -419 c-8 -24 19 -59 45 -59 11 0 24 -23 42 -77 l26 -78 1 78 1 77 50 0
50 0 0 -211 0 -210 -52 3 -52 3 -22 75 -23 75 0 -77 -1 -78 -50 0 -50 0 0 187
c0 159 -2 189 -17 205 -9 10 -11 18 -5 18 6 0 13 -6 15 -12 3 -8 6 -6 6 5 1
12 9 17 28 17 l27 0 -22 20 c-25 24 -27 31 -10 48 17 17 20 15 13 -9z m-87
-16 c-2 -13 3 -18 20 -17 20 1 21 -1 9 -20 -15 -21 -45 -38 -33 -17 4 7 2 18
-4 26 -7 8 -10 22 -6 30 8 21 18 19 14 -2z m-1085 -42 c42 -16 57 -39 57 -87
l0 -44 -50 0 c-49 0 -50 1 -50 30 0 20 -5 30 -15 30 -10 0 -15 -10 -15 -29 0
-24 9 -35 50 -61 76 -48 90 -72 90 -144 0 -39 -6 -70 -15 -83 -34 -49 -155
-54 -200 -9 -24 24 -42 115 -25 126 6 4 30 6 53 5 42 -1 42 -1 45 -43 3 -41
24 -58 35 -29 12 32 -7 64 -64 105 -77 55 -95 103 -68 180 18 51 105 78 172
53z m1667 -6 c46 -24 60 -52 60 -122 l0 -63 -55 0 -55 0 0 60 c0 47 -3 60 -15
60 -13 0 -15 -22 -15 -140 0 -118 2 -140 15 -140 11 0 15 12 15 50 l0 50 56 0
56 0 -4 -62 c-4 -51 -9 -65 -31 -84 -48 -41 -140 -44 -187 -6 -11 9 -25 35
-30 57 -13 55 -12 247 0 281 25 64 122 94 190 59z m-2260 -205 l0 -210 -60 0
-60 0 0 210 0 210 60 0 60 0 0 -210z m210 125 l25 -80 3 83 3 82 44 0 45 0 0
-210 0 -210 -49 0 -48 0 -26 83 -25 82 -1 -82 -1 -83 -45 0 -44 0 -3 206 c-2
113 -1 208 2 210 2 3 25 4 49 2 l45 -3 26 -80z m640 -67 c0 -154 5 -198 21
-198 5 0 9 79 9 175 l0 175 55 0 55 0 0 -180 0 -180 -28 -31 c-36 -40 -108
-50 -162 -22 -55 28 -60 48 -60 241 l0 172 55 0 55 0 0 -152z m452 125 c30
-31 33 -130 4 -162 -11 -12 -15 -21 -9 -21 20 0 33 -53 33 -130 l0 -80 -55 0
-54 0 -3 92 c-2 62 -7 93 -15 96 -10 3 -13 -20 -13 -92 l0 -96 -55 0 -55 0 0
211 0 211 100 -4 c87 -3 102 -6 122 -25z m312 -10 c4 -21 8 -51 10 -68 5 -42
5 -42 16 -25 8 13 10 12 10 -3 0 -10 -4 -26 -9 -35 -8 -15 1 -97 24 -224 4
-28 4 -28 -55 -28 l-59 0 -3 38 c-2 25 -8 37 -18 37 -10 0 -16 -12 -18 -37
l-3 -38 -61 0 -61 0 6 33 c2 17 15 112 28 210 l22 177 83 0 82 0 6 -37z m976
-8 c0 -45 0 -45 -35 -45 -33 0 -35 -2 -35 -35 0 -33 2 -35 36 -35 l35 0 -3
-42 c-3 -40 -5 -43 -35 -46 -31 -3 -33 -6 -33 -43 0 -39 0 -39 40 -39 l40 0 0
-45 0 -45 -95 0 -95 0 0 210 0 210 90 0 90 0 0 -45z m-2268 -652 l2 -138 6
135 5 135 883 3 884 2 -7 -337 c-4 -186 -10 -341 -14 -344 -3 -4 -217 -12
-476 -19 -258 -7 -571 -16 -695 -19 l-225 -6 135 -8 c74 -4 320 -12 545 -18
226 -6 412 -13 414 -15 2 -2 -310 -4 -694 -4 -604 0 -696 -2 -680 -14 14 -10
26 -11 40 -5 20 10 20 10 1 -5 -26 -21 -32 -20 -56 4 -14 14 -33 20 -65 20
l-45 0 0 385 c0 378 0 385 20 385 19 0 20 -7 22 -137z m1853 22 c1 -59 -1
-131 -5 -159 -5 -36 -8 -3 -9 113 -1 181 9 215 14 46z m174 -637 c-1 -88 -4
-120 -9 -93 l-7 40 -2 -52 -1 -53 -39 0 c-22 0 -43 -4 -46 -10 -4 -6 -52 -10
-113 -9 -85 0 -102 3 -82 11 146 62 204 109 248 200 17 35 33 71 36 81 12 40
16 9 15 -115z m-1991 -78 c12 -16 17 -27 10 -24 -17 6 -52 54 -40 54 4 0 18
-13 30 -30z"/>
<path d="M1453 2805 c-18 -12 -23 -26 -23 -58 0 -49 3 -53 53 -90 39 -30 51
-72 22 -83 -8 -4 -12 -10 -9 -15 3 -5 14 -4 26 2 18 10 20 9 15 -6 -5 -12 -2
-16 11 -13 9 2 17 12 18 23 0 11 5 31 11 45 14 34 1 58 -48 94 -29 20 -39 34
-37 50 4 28 22 27 26 -1 3 -18 10 -23 33 -23 25 0 29 4 29 29 0 16 -7 34 -15
41 -24 20 -87 23 -112 5z"/>
<path d="M1713 2810 c-37 -15 -45 -45 -40 -148 3 -86 6 -97 28 -115 28 -23 96
-18 115 8 14 19 27 112 18 127 -4 7 -7 30 -5 53 1 29 -4 46 -17 58 -23 21 -70
29 -99 17z m79 -52 c17 -8 28 -21 28 -33 -1 -18 -3 -17 -25 8 l-24 27 -3 -92
c-3 -94 -20 -129 -26 -52 -2 32 -8 44 -28 52 -16 8 -24 19 -23 34 0 15 3 18 6
8 7 -17 29 -40 38 -40 3 0 5 15 3 33 -2 22 -8 31 -18 29 -11 -2 -11 1 3 11 9
8 17 20 17 27 0 12 5 11 52 -12z m-89 -143 c-3 -9 -8 -14 -10 -11 -3 3 -2 9 2
15 9 16 15 13 8 -4z"/>
<path d="M1958 2803 c-34 -22 -42 -58 -36 -161 4 -63 9 -79 28 -94 53 -43 140
-5 140 62 0 28 -3 30 -35 30 -33 0 -35 -2 -35 -36 0 -24 -4 -34 -12 -32 -9 3
-14 35 -16 101 -2 80 0 97 12 97 10 0 16 -13 18 -37 3 -35 6 -38 36 -41 31 -3
32 -2 32 36 0 23 -7 49 -17 61 -24 30 -81 36 -115 14z"/>
<path d="M2180 2675 l0 -135 35 0 35 0 0 135 0 135 -35 0 -35 0 0 -135z"/>
<path d="M2355 2768 c-3 -24 -11 -85 -19 -135 l-13 -93 39 0 c34 0 38 3 38 25
0 16 6 25 15 25 9 0 15 -9 15 -25 0 -22 4 -25 35 -25 41 0 39 -7 20 124 -24
158 -18 146 -75 146 l-49 0 -6 -42z m66 -82 c2 -32 -1 -51 -9 -54 -13 -4 -16
27 -6 77 9 41 12 37 15 -23z"/>
<path d="M2580 2675 l0 -135 55 0 c52 0 55 1 55 25 0 18 -5 25 -20 25 -19 0
-20 7 -20 110 l0 110 -35 0 -35 0 0 -135z"/>
<path d="M1430 2600 c0 -35 31 -70 62 -70 19 0 20 1 6 18 -10 11 -14 28 -11
50 5 30 4 32 -26 32 -28 0 -31 -3 -31 -30z"/>
<path d="M1585 2439 c179 -9 775 -9 970 1 89 4 -107 6 -480 6 -369 1 -572 -2
-490 -7z"/>
<path d="M2078 2285 c-1 -30 0 -55 5 -55 4 0 7 8 7 18 0 9 3 34 6 55 4 23 3
37 -4 37 -5 0 -12 -25 -14 -55z"/>
<path d="M1902 2317 c7 -8 22 -30 33 -50 20 -39 35 -48 35 -22 0 8 -4 15 -8
15 -5 0 -17 16 -28 35 -10 19 -25 35 -32 35 -11 0 -11 -2 0 -13z"/>
<path d="M2190 2315 c0 -8 4 -15 9 -15 4 0 16 -20 25 -45 16 -40 36 -60 36
-36 0 5 3 18 6 28 5 14 4 15 -4 4 -8 -12 -15 -5 -33 32 -23 47 -39 60 -39 32z"/>
<path d="M2270 2290 c0 -11 2 -20 4 -20 2 0 6 9 9 20 3 11 1 20 -4 20 -5 0 -9
-9 -9 -20z"/>
<path d="M1800 2297 c0 -14 38 -106 42 -101 8 7 -24 104 -34 104 -4 0 -8 -1
-8 -3z"/>
<path d="M2181 2274 c0 -11 3 -14 6 -6 3 7 2 16 -1 19 -3 4 -6 -2 -5 -13z"/>
<path d="M2171 2234 c0 -11 3 -14 6 -6 3 7 2 16 -1 19 -3 4 -6 -2 -5 -13z"/>
<path d="M2347 2232 c-21 -23 -21 -43 -1 -68 15 -19 15 -19 6 0 -11 22 1 65
21 78 8 5 8 8 1 8 -6 0 -18 -8 -27 -18z"/>
<path d="M2430 2230 c0 -5 5 -10 11 -10 5 0 7 5 4 10 -3 6 -8 10 -11 10 -2 0
-4 -4 -4 -10z"/>
<path d="M1685 2190 c14 -22 25 -44 25 -49 0 -6 8 -7 17 -4 10 4 12 8 5 11 -6
2 -22 21 -34 43 -12 21 -25 39 -30 39 -5 0 3 -18 17 -40z"/>
<path d="M1756 2163 c-6 -14 -5 -15 5 -6 7 7 10 15 7 18 -3 3 -9 -2 -12 -12z"/>
<path d="M2392 2159 c-14 -22 -5 -24 21 -5 14 11 15 15 4 19 -7 3 -19 -4 -25
-14z"/>
<path d="M2040 2085 c-7 -9 -11 -17 -9 -20 3 -2 10 5 17 15 14 24 10 26 -8 5z"/>
<path d="M2106 2065 c-9 -26 -7 -32 5 -12 6 10 9 21 6 23 -2 3 -7 -2 -11 -11z"/>
<path d="M2115 2010 c-9 -16 -13 -30 -11 -30 3 0 12 14 21 30 9 17 13 30 11
30 -3 0 -12 -13 -21 -30z"/>
<path d="M2152 2015 c-9 -18 -8 -26 1 -31 7 -4 9 -4 5 1 -4 4 -3 16 3 27 6 11
9 22 6 24 -2 2 -9 -7 -15 -21z"/>
<path d="M2060 1992 c-25 -27 -28 -33 -11 -21 22 14 60 59 50 59 -2 0 -20 -17
-39 -38z"/>
<path d="M1743 2003 c26 -2 67 -2 90 0 23 2 2 3 -48 3 -49 0 -68 -1 -42 -3z"/>
<path d="M2278 2003 c23 -2 61 -2 85 0 23 2 4 4 -43 4 -47 0 -66 -2 -42 -4z"/>
<path d="M2305 1858 c-11 -6 -23 -16 -27 -22 -14 -20 -8 -63 10 -79 22 -20 82
-23 82 -4 0 7 -12 13 -27 12 -25 0 -28 3 -28 35 0 31 3 35 28 38 16 2 27 8 24
15 -5 16 -38 19 -62 5z"/>
<path d="M1500 1801 c0 -54 2 -61 20 -61 13 0 20 7 20 19 0 12 11 21 33 27 27
8 32 15 32 39 0 29 -2 30 -52 33 l-53 3 0 -60z m69 40 c17 -11 7 -41 -14 -41
-9 0 -15 9 -15 25 0 27 6 30 29 16z"/>
<path d="M1760 1800 l0 -60 45 0 c25 0 45 5 45 10 0 6 -11 10 -25 10 -18 0
-25 5 -25 20 0 15 7 20 27 20 29 0 26 10 -4 14 -27 4 -22 29 7 37 19 5 14 7
-22 8 l-48 1 0 -60z"/>
<path d="M2020 1818 c-6 -24 -13 -51 -16 -60 -4 -12 0 -18 10 -18 9 0 16 5 16
10 0 6 9 10 19 10 11 0 23 -4 26 -10 3 -5 15 -10 27 -10 14 0 18 5 14 16 -4 9
-11 36 -17 60 -10 39 -15 44 -40 44 -25 0 -30 -5 -39 -42z m40 -32 c-16 -16
-22 0 -14 36 l7 33 8 -30 c5 -17 5 -33 -1 -39z"/>
<path d="M2530 1800 l0 -60 40 0 c42 0 56 16 18 22 -31 4 -29 32 2 37 l25 4
-25 6 c-14 4 -25 13 -25 21 0 8 11 17 25 21 20 6 17 7 -17 8 l-43 1 0 -60z"/>
<path d="M2010 1420 c0 -29 4 -40 15 -40 11 0 15 11 15 40 0 29 -4 40 -15 40
-11 0 -15 -11 -15 -40z"/>
<path d="M2341 1340 c-1 -14 -4 -35 -7 -47 -5 -17 -2 -23 10 -23 18 0 21 40 6
75 -8 18 -9 18 -9 -5z"/>
<path d="M1725 901 c80 -33 75 -161 -8 -211 -18 -11 -27 -20 -20 -20 6 0 25
11 41 25 38 32 65 99 57 142 -6 34 -46 73 -74 72 -12 0 -11 -2 4 -8z"/>
<path d="M1604 866 c-3 -8 -4 -23 -2 -33 3 -11 6 -6 9 15 6 34 2 42 -7 18z"/>
<path d="M1661 854 c-26 -18 -60 -87 -61 -120 0 -12 9 -32 20 -45 l20 -24 -14
29 c-20 39 2 110 44 149 33 30 28 36 -9 11z"/>
<path d="M2060 828 c-26 -44 -53 -125 -45 -138 12 -19 22 -10 18 14 -5 26 39
135 60 148 9 6 9 8 -1 8 -7 0 -21 -15 -32 -32z"/>
<path d="M2193 852 c-18 -11 -72 -134 -65 -150 2 -8 15 16 27 52 12 37 30 75
40 86 19 21 18 25 -2 12z"/>
<path d="M2341 834 c-25 -31 -55 -120 -47 -139 3 -8 11 -15 18 -14 10 0 10 2
1 6 -15 5 -17 26 -5 51 5 9 20 41 34 70 29 58 29 64 -1 26z"/>
<path d="M2110 799 c0 -5 5 -7 10 -4 6 3 10 8 10 11 0 2 -4 4 -10 4 -5 0 -10
-5 -10 -11z"/>
<path d="M1952 774 c-39 -27 -61 -94 -31 -94 4 0 6 6 3 14 -7 18 12 54 40 78
26 22 18 23 -12 2z"/>
<path d="M1816 739 c-13 -32 -14 -45 -5 -53 8 -8 10 -7 7 4 -3 8 3 32 14 53
10 20 14 37 9 37 -5 0 -16 -19 -25 -41z"/>
<path d="M1872 746 c-18 -30 -19 -37 -6 -53 11 -14 13 -15 8 -2 -3 9 2 33 10
53 19 45 14 46 -12 2z"/>
<path d="M2082 740 c-11 -22 -16 -42 -12 -45 8 -5 44 74 37 82 -3 2 -14 -14
-25 -37z"/>
<path d="M2222 773 c-32 -13 -49 -93 -20 -93 7 0 6 5 -1 14 -8 10 -5 22 14 50
13 20 23 36 22 35 -1 0 -8 -3 -15 -6z"/>
<path d="M2358 742 c-15 -38 -14 -62 3 -62 4 0 6 7 3 15 -4 9 -1 29 6 46 7 16
11 32 8 34 -3 3 -12 -12 -20 -33z"/>
<path d="M2411 747 c-14 -41 -9 -67 11 -67 10 0 10 2 0 8 -9 6 -10 16 -1 40 6
17 9 37 7 44 -3 7 -10 -4 -17 -25z"/>
<path d="M2461 753 c0 -25 1 -26 9 -8 12 27 12 35 0 35 -5 0 -10 -12 -9 -27z"/>
<path d="M2496 758 c-18 -25 -21 -64 -7 -72 5 -4 7 3 4 15 -4 12 3 32 16 50
12 16 17 29 12 29 -5 0 -17 -10 -25 -22z"/>
<path d="M1970 729 c-10 -22 -10 -33 -1 -42 8 -8 11 -5 11 12 0 12 5 31 10 42
6 10 7 19 2 19 -5 0 -15 -14 -22 -31z"/>
<path d="M2251 742 c-14 -26 -14 -49 -1 -57 5 -3 7 0 4 9 -3 8 0 24 6 36 6 12
9 24 7 27 -3 2 -10 -4 -16 -15z"/>
<path d="M1660 620 c29 -22 59 -40 66 -40 7 0 21 -3 31 -6 10 -3 -2 5 -27 18
-25 13 -58 33 -74 46 -16 12 -33 22 -39 22 -6 0 14 -18 43 -40z"/>
<path d="M1757 519 c7 -7 15 -10 18 -7 3 3 -2 9 -12 12 -14 6 -15 5 -6 -5z"/>
<path d="M2649 514 c18 -13 22 -24 19 -51 -4 -31 -3 -33 9 -17 21 28 -6 84
-41 84 -6 0 0 -7 13 -16z"/>
<path d="M1280 501 c-15 -28 -12 -46 8 -64 24 -22 38 -22 17 0 -11 11 -15 28
-13 50 5 38 3 40 -12 14z"/>
<path d="M1605 478 c21 -24 42 -47 46 -52 5 -6 9 -1 9 12 0 12 -4 21 -8 20 -5
-2 -21 12 -36 30 -15 17 -32 32 -38 32 -6 0 7 -19 27 -42z"/>
<path d="M1651 504 c0 -11 3 -14 6 -6 3 7 2 16 -1 19 -3 4 -6 -2 -5 -13z"/>
<path d="M1841 485 c-1 -45 12 -65 44 -65 18 0 17 2 -5 13 -18 9 -27 23 -31
52 l-6 40 -2 -40z"/>
<path d="M1990 470 c0 -27 5 -50 10 -50 6 0 10 23 10 50 0 28 -4 50 -10 50 -5
0 -10 -22 -10 -50z"/>
<path d="M2133 470 c0 -30 2 -43 4 -27 2 15 2 39 0 55 -2 15 -4 2 -4 -28z"/>
<path d="M2268 515 c-3 -3 0 -18 8 -33 8 -15 14 -35 14 -44 0 -10 5 -18 11
-18 11 0 7 19 -15 73 -6 16 -14 26 -18 22z"/>
<path d="M2400 477 c-3 -27 -2 -51 3 -54 12 -7 13 -3 7 52 l-6 50 -4 -48z"/>
<path d="M2513 470 c0 -30 2 -43 4 -27 2 15 2 39 0 55 -2 15 -4 2 -4 -28z"/>
<path d="M2590 501 c-5 -11 -10 -26 -10 -34 0 -20 33 -47 56 -46 14 1 13 3 -6
8 -22 6 -25 13 -25 49 0 23 -1 42 -2 42 -1 0 -7 -9 -13 -19z"/>
<path d="M2782 470 c24 -27 44 -46 46 -40 4 11 -67 90 -80 90 -5 0 10 -22 34
-50z"/>
<path d="M2822 490 c0 -19 2 -27 5 -17 2 9 2 25 0 35 -3 9 -5 1 -5 -18z"/>
<path d="M1415 490 c-6 -18 9 -60 21 -60 2 0 1 8 -4 18 -5 9 -8 27 -6 40 5 27
-2 29 -11 2z"/>
<path d="M1498 475 c2 -19 6 -35 8 -35 2 0 4 16 4 35 0 19 -4 35 -8 35 -4 0
-6 -16 -4 -35z"/>
<path d="M1720 495 c0 -9 11 -20 25 -27 13 -6 26 -18 28 -27 3 -10 5 -8 6 7 0
12 -3 22 -9 22 -5 0 -19 9 -30 20 -16 16 -20 17 -20 5z"/>
<path d="M1720 430 c0 -6 7 -10 15 -10 8 0 15 2 15 4 0 2 -7 6 -15 10 -8 3
-15 1 -15 -4z"/>
<path d="M2040 430 c-9 -6 -10 -10 -3 -10 6 0 15 5 18 10 8 12 4 12 -15 0z"/>
<path d="M2225 430 c-3 -5 -1 -10 4 -10 6 0 11 5 11 10 0 6 -2 10 -4 10 -3 0
-8 -4 -11 -10z"/>
<path d="M30 1425 c0 -3 30 -57 66 -120 39 -68 70 -112 76 -109 7 4 8 2 4 -5
-4 -6 2 -26 13 -45 12 -18 21 -40 21 -48 0 -8 -40 -86 -90 -174 l-90 -159 205
-3 c113 -1 298 -1 412 0 l208 3 -190 76 -190 76 -3 256 c-1 154 -6 257 -12
257 -5 0 -7 -8 -4 -17 5 -17 5 -17 -6 0 -10 15 -32 17 -215 17 -113 0 -205 -2
-205 -5z m394 -34 c20 -22 14 -61 -10 -61 -18 0 -18 -9 3 -32 32 -35 -4 -17
-41 21 -37 38 -38 39 -21 65 20 31 45 33 69 7z m-84 -75 c0 -7 -8 -20 -17 -27
-16 -13 -17 -12 -5 3 18 22 -4 36 -25 15 -14 -13 -13 -17 7 -37 21 -21 23 -21
41 -4 10 9 19 12 19 6 0 -20 -38 -34 -60 -22 -11 6 -20 12 -20 15 0 2 -3 10
-6 18 -3 8 2 22 11 31 20 20 55 21 55 2z m-80 -66 c13 -8 13 -11 -2 -26 -16
-16 -17 -16 -11 6 5 20 4 21 -16 11 -24 -14 -25 -19 -6 -44 9 -13 21 -17 37
-12 21 5 21 5 4 -6 -27 -17 -66 4 -66 35 0 14 8 30 18 35 21 13 23 13 42 1z"/>
<path d="M372 1388 c-17 -17 -15 -35 5 -47 24 -13 54 4 46 27 -12 31 -32 39
-51 20z"/>
<path d="M3630 1173 l0 -258 -187 -75 -187 -75 409 -3 c224 -1 410 0 412 2 3
2 -32 66 -75 143 -44 76 -86 150 -92 165 -12 24 -6 38 79 186 50 88 91 162 91
166 0 3 -101 6 -225 6 l-225 0 0 -257z m277 -255 c-1 -17 5 -24 28 -29 28 -6
29 -7 4 -8 -33 -1 -42 -11 -28 -28 26 -31 -7 -9 -49 32 -24 25 -40 45 -35 45
6 0 18 -9 28 -20 23 -25 35 -26 35 -2 0 17 8 32 17 32 1 0 2 -10 0 -22z m-22
-106 c-4 -4 -55 47 -55 56 0 3 13 -7 30 -23 16 -16 28 -30 25 -33z m-53 1 c19
-17 24 -43 8 -43 -5 0 -10 9 -10 19 0 10 -7 22 -16 25 -19 7 -44 -10 -44 -30
0 -14 -12 -19 -23 -8 -7 7 41 54 56 54 6 0 19 -7 29 -17z"/>
<path d="M980 40 c0 -5 9 -10 20 -10 11 0 20 5 20 10 0 6 -9 10 -20 10 -11 0
-20 -4 -20 -10z"/>
</g>
</svg>
