<svg id="svg" version="1.1" xmlns="http://www.w3.org/2000/svg" xmlns:xlink="http://www.w3.org/1999/xlink" width="400" height="400" viewBox="0, 0, 400,400"><g id="svgg"><path id="path0" d="M128.806 269.500 C 128.803 269.788,128.290 270.000,127.600 270.000 C 126.940 270.000,126.400 270.180,126.400 270.400 C 126.400 270.620,125.961 270.800,125.424 270.800 C 124.887 270.800,124.336 270.980,124.200 271.200 C 124.064 271.420,123.511 271.600,122.971 271.600 C 122.025 271.600,121.659 271.728,119.705 272.738 C 119.213 272.992,118.369 273.200,117.829 273.200 C 117.289 273.200,116.736 273.380,116.600 273.600 C 116.464 273.820,115.913 274.000,115.376 274.000 C 114.839 274.000,114.400 274.180,114.400 274.400 C 114.400 274.620,113.958 274.800,113.419 274.800 C 112.879 274.800,112.024 274.965,111.519 275.167 C 109.742 275.878,108.994 276.115,108.400 276.157 C 107.783 276.201,98.638 279.102,97.645 279.569 C 97.201 279.778,97.106 281.138,97.169 286.422 C 97.264 294.503,97.394 294.156,93.866 295.213 C 92.290 295.685,90.280 296.315,89.400 296.613 C 87.506 297.255,79.284 299.814,77.000 300.472 C 69.273 302.699,63.006 308.714,59.696 317.080 L 58.619 319.800 58.495 359.567 C 58.395 391.659,58.470 399.398,58.885 399.661 C 60.078 400.418,340.432 400.063,342.600 399.302 C 343.700 398.916,344.660 398.465,344.733 398.300 C 344.807 398.135,345.123 398.000,345.437 398.000 C 345.751 398.000,346.572 397.460,347.263 396.800 C 347.954 396.140,348.792 395.600,349.126 395.600 C 349.460 395.600,349.624 395.491,349.491 395.357 C 349.242 395.108,349.544 394.664,351.086 393.013 C 351.574 392.491,352.538 390.924,353.229 389.532 C 353.921 388.139,354.650 386.683,354.849 386.295 C 355.362 385.301,355.291 318.391,354.776 317.772 C 354.558 317.508,354.354 316.634,354.324 315.830 C 354.294 315.025,354.119 314.273,353.935 314.160 C 353.751 314.046,353.600 313.513,353.600 312.976 C 353.600 312.439,353.420 312.000,353.200 312.000 C 352.980 312.000,352.800 311.638,352.800 311.195 C 352.800 310.439,352.094 308.847,351.562 308.400 C 351.430 308.290,351.205 307.718,351.061 307.128 C 350.917 306.538,350.574 305.818,350.299 305.528 C 350.025 305.238,349.545 304.505,349.232 303.900 C 348.920 303.295,348.515 302.800,348.332 302.800 C 348.150 302.800,348.000 302.622,348.000 302.405 C 348.000 301.842,347.006 300.681,343.746 297.439 C 339.701 293.415,338.541 292.451,337.402 292.165 C 336.851 292.026,336.400 291.753,336.400 291.557 C 336.400 291.360,336.119 291.200,335.776 291.200 C 335.433 291.200,335.264 291.020,335.400 290.800 C 335.536 290.580,335.364 290.400,335.018 290.400 C 334.672 290.400,334.032 290.220,333.595 290.000 C 333.158 289.780,332.442 289.420,332.005 289.200 C 331.568 288.980,330.938 288.800,330.605 288.800 C 330.272 288.800,330.000 288.620,330.000 288.400 C 330.000 288.180,329.640 288.000,329.200 288.000 C 328.760 288.000,328.400 287.858,328.400 287.685 C 328.400 287.512,327.995 287.343,327.500 287.309 C 326.344 287.230,323.513 286.359,323.020 285.930 C 322.811 285.749,322.237 285.600,321.744 285.600 C 321.251 285.600,320.736 285.420,320.600 285.200 C 320.464 284.980,319.913 284.800,319.376 284.800 C 318.839 284.800,318.400 284.620,318.400 284.400 C 318.400 284.180,317.806 284.000,317.080 284.000 C 316.354 284.000,315.581 283.821,315.362 283.602 C 315.144 283.384,314.478 283.164,313.882 283.115 C 313.287 283.066,312.800 282.885,312.800 282.713 C 312.800 282.541,312.249 282.400,311.576 282.400 C 310.903 282.400,310.440 282.258,310.548 282.085 C 310.655 281.912,310.260 281.733,309.671 281.689 C 308.684 281.614,307.696 281.264,305.905 280.353 C 305.523 280.159,304.936 280.000,304.600 280.000 C 304.264 280.000,303.677 279.838,303.295 279.641 C 302.913 279.444,301.250 278.882,299.600 278.393 C 297.950 277.905,296.240 277.364,295.800 277.192 C 294.298 276.606,290.505 275.558,289.652 275.494 C 289.183 275.459,288.800 275.288,288.800 275.115 C 288.800 274.942,288.260 274.800,287.600 274.800 C 286.940 274.800,286.400 274.620,286.400 274.400 C 286.400 274.180,285.871 274.000,285.224 274.000 C 284.577 274.000,283.936 273.820,283.800 273.600 C 283.664 273.380,283.113 273.200,282.576 273.200 C 282.039 273.200,281.600 273.020,281.600 272.800 C 281.600 272.580,281.060 272.400,280.400 272.400 C 279.740 272.400,279.200 272.220,279.200 272.000 C 279.200 271.780,278.581 271.600,277.824 271.600 C 277.067 271.600,276.336 271.420,276.200 271.200 C 276.064 270.980,275.524 270.800,275.000 270.800 C 274.476 270.800,273.936 270.620,273.800 270.400 C 273.664 270.180,273.113 270.000,272.576 270.000 C 272.039 270.000,271.600 269.820,271.600 269.600 C 271.600 269.380,271.420 269.200,271.200 269.200 C 270.980 269.200,270.800 269.822,270.800 270.583 C 270.800 271.757,267.666 278.613,266.403 280.200 C 266.228 280.420,265.706 281.275,265.243 282.100 C 264.779 282.925,264.057 284.205,263.638 284.945 C 263.218 285.685,262.633 286.720,262.338 287.245 C 262.042 287.770,261.710 288.290,261.600 288.400 C 261.490 288.510,261.026 289.320,260.570 290.200 C 259.494 292.273,258.651 293.749,258.399 294.000 C 258.289 294.110,257.931 294.740,257.604 295.400 C 257.276 296.060,256.486 297.500,255.848 298.600 C 254.388 301.118,253.666 302.394,252.002 305.400 C 249.218 310.431,247.183 312.773,245.562 312.814 C 245.249 312.822,243.927 314.989,242.573 317.714 C 240.396 322.098,235.315 332.061,225.292 351.600 C 223.430 355.230,220.654 360.677,219.123 363.705 C 217.592 366.732,216.173 369.107,215.969 368.981 C 215.766 368.856,215.600 369.053,215.600 369.421 C 215.600 370.040,202.911 395.342,201.101 398.333 C 200.038 400.089,199.947 399.982,196.176 392.600 C 194.490 389.300,192.256 384.980,191.211 383.000 C 190.166 381.020,188.174 377.150,186.784 374.400 C 185.395 371.650,184.135 369.310,183.986 369.200 C 183.837 369.090,182.024 365.670,179.957 361.600 C 177.891 357.530,176.065 354.140,175.900 354.067 C 175.735 353.993,175.600 353.603,175.600 353.200 C 175.600 352.797,175.465 352.407,175.300 352.333 C 175.135 352.260,173.668 349.590,172.041 346.400 C 164.968 332.537,163.111 328.977,162.766 328.620 C 162.565 328.411,162.400 327.931,162.400 327.553 C 162.400 327.176,162.259 326.807,162.087 326.733 C 161.915 326.660,160.920 324.890,159.876 322.800 C 155.516 314.071,154.890 313.058,153.314 312.181 C 151.868 311.376,150.721 309.808,147.921 304.800 C 147.367 303.810,146.430 302.190,145.839 301.200 C 145.248 300.210,144.662 299.085,144.536 298.700 C 144.410 298.315,144.148 298.000,143.953 298.000 C 143.759 298.000,143.600 297.640,143.600 297.200 C 143.600 296.760,143.441 296.400,143.247 296.400 C 143.052 296.400,142.793 296.085,142.671 295.700 C 142.454 295.015,141.196 292.796,140.800 292.400 C 140.690 292.290,140.223 291.480,139.762 290.600 C 138.471 288.137,137.178 285.902,136.406 284.800 C 136.020 284.250,135.574 283.380,135.415 282.866 C 135.255 282.353,134.279 280.463,133.246 278.666 C 130.912 274.607,129.602 271.823,129.594 270.904 C 129.587 270.084,128.816 268.710,128.806 269.500 " stroke="none" fill="#0d98d2" fill-rule="evenodd"></path><path id="path1" d="M159.400 0.715 C 154.594 2.361,149.755 5.757,147.188 9.287 C 146.593 10.104,146.010 10.677,145.893 10.560 C 145.776 10.442,145.551 11.123,145.394 12.073 C 145.238 13.023,144.963 13.983,144.783 14.207 C 144.604 14.430,143.949 16.050,143.329 17.807 L 142.200 21.000 142.077 41.675 L 141.954 62.350 143.630 61.540 C 145.475 60.648,151.242 60.659,155.400 61.562 C 157.759 62.074,161.236 62.725,163.200 63.021 C 163.970 63.138,165.230 63.395,166.000 63.592 C 166.770 63.790,168.570 64.157,170.000 64.409 C 171.430 64.660,173.410 65.022,174.400 65.213 C 175.390 65.405,177.190 65.750,178.400 65.979 C 183.942 67.032,189.170 68.037,191.000 68.402 C 192.100 68.621,195.520 69.263,198.600 69.829 C 209.165 71.770,219.496 73.741,222.600 74.409 C 223.480 74.598,224.920 74.871,225.800 75.015 C 227.598 75.308,229.949 75.748,233.200 76.399 C 234.410 76.642,236.390 77.018,237.600 77.236 C 238.810 77.453,240.610 77.793,241.600 77.991 C 245.227 78.716,245.838 78.834,247.800 79.189 C 259.055 81.230,260.975 81.955,265.005 85.687 C 270.331 90.620,271.190 93.583,271.196 107.040 C 271.198 113.428,271.368 118.008,271.634 118.840 C 272.430 121.336,273.748 123.656,275.246 125.200 C 276.613 126.608,277.372 127.061,280.519 128.344 C 281.205 128.623,284.379 128.807,288.719 128.818 C 296.135 128.836,298.148 129.142,301.112 130.700 C 304.350 132.402,304.082 135.365,303.897 99.900 C 303.806 82.465,303.595 67.750,303.429 67.200 C 303.263 66.650,303.031 65.252,302.913 64.093 C 302.796 62.934,302.542 61.888,302.350 61.769 C 302.157 61.650,302.000 60.854,302.000 60.000 C 302.000 59.146,301.820 58.336,301.600 58.200 C 301.380 58.064,301.200 57.511,301.200 56.971 C 301.200 56.431,301.035 55.677,300.833 55.295 C 300.632 54.913,300.047 53.206,299.533 51.502 C 299.020 49.798,298.465 48.403,298.300 48.402 C 298.135 48.401,298.000 48.147,298.000 47.838 C 298.000 47.529,297.653 46.584,297.228 45.738 C 296.804 44.892,295.885 43.030,295.185 41.600 C 294.486 40.170,293.798 38.910,293.657 38.800 C 293.182 38.430,292.400 36.816,292.400 36.205 C 292.400 35.872,292.257 35.600,292.083 35.600 C 291.908 35.600,291.233 34.704,290.583 33.608 C 289.932 32.512,289.287 31.612,289.149 31.608 C 289.011 31.604,288.201 30.567,287.349 29.304 C 285.819 27.037,278.978 19.941,276.451 18.000 C 275.735 17.450,274.575 16.503,273.874 15.895 C 273.173 15.288,271.700 14.214,270.600 13.508 C 269.500 12.803,268.510 12.110,268.400 11.969 C 268.290 11.827,267.615 11.412,266.900 11.046 C 266.185 10.679,265.600 10.185,265.600 9.947 C 265.600 9.709,265.345 9.612,265.033 9.732 C 264.721 9.852,264.366 9.689,264.244 9.371 C 264.122 9.053,263.882 8.814,263.711 8.840 C 263.102 8.931,261.600 8.301,261.600 7.953 C 261.600 7.759,261.240 7.600,260.800 7.600 C 260.360 7.600,260.000 7.420,260.000 7.200 C 260.000 6.980,259.651 6.800,259.224 6.800 C 258.797 6.800,258.336 6.620,258.200 6.400 C 258.064 6.180,257.603 6.000,257.176 6.000 C 256.749 6.000,256.400 5.820,256.400 5.600 C 256.400 5.380,256.051 5.200,255.624 5.200 C 255.197 5.200,254.736 5.020,254.600 4.800 C 254.464 4.580,254.001 4.400,253.571 4.400 C 253.141 4.400,252.432 4.220,251.995 4.000 C 251.558 3.780,250.842 3.420,250.405 3.200 C 249.968 2.980,249.169 2.800,248.629 2.800 C 248.089 2.800,247.536 2.620,247.400 2.400 C 247.264 2.180,246.634 2.000,246.000 2.000 C 245.366 2.000,244.736 1.820,244.600 1.600 C 244.464 1.380,243.679 1.200,242.856 1.200 C 242.033 1.200,241.135 0.975,240.860 0.700 C 239.968 -0.192,162.008 -0.177,159.400 0.715 M139.091 64.256 C 135.258 68.090,134.800 70.718,134.800 88.897 C 134.800 103.129,134.567 104.822,131.795 110.716 C 131.041 112.320,130.576 113.539,130.761 113.424 C 131.201 113.152,133.139 109.184,133.650 107.507 C 135.307 102.076,135.308 102.065,135.568 85.800 L 135.825 69.800 136.941 67.800 C 137.555 66.700,138.872 65.035,139.867 64.100 C 140.863 63.165,141.513 62.400,141.312 62.400 C 141.112 62.400,140.112 63.235,139.091 64.256 M157.322 110.299 C 159.699 110.370,163.479 110.369,165.722 110.298 C 167.965 110.227,166.020 110.169,161.400 110.169 C 156.780 110.170,154.945 110.228,157.322 110.299 M234.922 110.299 C 237.299 110.370,241.079 110.369,243.322 110.298 C 245.565 110.227,243.620 110.169,239.000 110.169 C 234.380 110.170,232.545 110.228,234.922 110.299 M171.496 111.544 C 172.209 112.235,172.912 112.800,173.058 112.800 C 173.487 112.800,171.882 111.164,171.004 110.707 C 170.542 110.466,170.751 110.822,171.496 111.544 M228.006 111.794 C 227.263 112.561,226.732 113.251,226.827 113.327 C 226.922 113.404,227.675 112.777,228.500 111.933 C 229.325 111.090,229.855 110.400,229.678 110.400 C 229.502 110.400,228.749 111.027,228.006 111.794 M150.096 112.277 C 147.985 115.274,148.467 119.336,151.134 121.030 C 152.137 121.666,152.125 121.626,150.941 120.353 C 148.911 118.170,148.682 114.336,150.468 112.420 C 150.915 111.940,151.192 111.459,151.084 111.351 C 150.976 111.242,150.531 111.659,150.096 112.277 M250.590 113.580 C 252.325 116.936,250.509 120.549,246.428 121.858 C 245.585 122.128,245.317 122.333,245.774 122.358 C 248.454 122.503,251.600 119.193,251.600 116.226 C 251.600 114.898,250.672 112.400,250.179 112.400 C 250.069 112.400,250.254 112.931,250.590 113.580 M128.265 116.400 C 127.240 117.720,126.516 118.800,126.656 118.800 C 126.945 118.800,127.489 118.144,129.229 115.700 C 131.007 113.201,130.415 113.631,128.265 116.400 M226.193 115.300 C 226.059 116.015,226.130 117.050,226.350 117.600 C 226.688 118.446,226.753 118.246,226.775 116.300 C 226.803 113.740,226.562 113.326,226.193 115.300 M173.224 118.536 C 172.694 119.932,171.068 121.297,169.268 121.858 C 168.461 122.110,168.133 122.335,168.540 122.358 C 170.436 122.466,174.808 118.675,173.870 117.736 C 173.734 117.600,173.443 117.960,173.224 118.536 M227.154 119.513 C 227.801 120.724,229.733 121.980,231.266 122.187 C 232.496 122.353,232.477 122.330,231.024 121.895 C 230.158 121.635,228.832 120.805,228.079 120.052 C 227.263 119.236,226.889 119.018,227.154 119.513 M123.730 120.929 C 121.586 122.660,120.759 123.875,122.700 122.443 C 124.424 121.171,126.545 119.197,126.154 119.229 C 125.959 119.245,124.868 120.010,123.730 120.929 M152.800 122.000 C 153.130 122.213,153.760 122.388,154.200 122.388 C 154.862 122.388,154.897 122.321,154.400 122.000 C 154.070 121.787,153.440 121.612,153.000 121.612 C 152.338 121.612,152.303 121.679,152.800 122.000 M119.600 124.000 C 119.050 124.430,118.375 124.786,118.100 124.791 C 117.825 124.796,117.600 124.985,117.600 125.210 C 117.600 125.450,118.058 125.379,118.700 125.041 C 120.190 124.255,121.491 123.226,121.000 123.222 C 120.780 123.220,120.150 123.570,119.600 124.000 M115.800 126.000 C 115.664 126.220,115.203 126.400,114.776 126.400 C 114.349 126.400,114.000 126.582,114.000 126.805 C 114.000 127.041,114.620 126.952,115.479 126.593 C 117.245 125.855,117.556 125.600,116.690 125.600 C 116.337 125.600,115.936 125.780,115.800 126.000 M111.200 127.600 C 110.405 128.114,111.404 128.114,112.600 127.600 L 113.400 127.256 112.600 127.234 C 112.160 127.222,111.530 127.387,111.200 127.600 M107.000 128.400 C 105.906 128.870,107.733 128.870,109.200 128.400 C 110.175 128.088,110.170 128.079,109.000 128.068 C 108.340 128.062,107.440 128.211,107.000 128.400 M103.000 129.200 L 102.200 129.544 103.000 129.532 C 103.440 129.526,104.250 129.376,104.800 129.200 L 105.800 128.880 104.800 128.868 C 104.250 128.862,103.440 129.011,103.000 129.200 M97.000 131.600 C 96.229 131.931,96.231 131.945,97.076 131.972 C 97.558 131.987,98.064 131.820,98.200 131.600 C 98.492 131.127,98.101 131.127,97.000 131.600 M167.750 138.600 C 167.751 141.020,167.816 141.958,167.896 140.685 C 167.976 139.412,167.975 137.432,167.894 136.285 C 167.814 135.138,167.749 136.180,167.750 138.600 M232.548 138.800 C 232.548 141.110,232.614 142.055,232.695 140.900 C 232.776 139.745,232.776 137.855,232.695 136.700 C 232.614 135.545,232.548 136.490,232.548 138.800 M154.940 138.800 C 154.940 140.670,155.009 141.435,155.093 140.500 C 155.177 139.565,155.177 138.035,155.093 137.100 C 155.009 136.165,154.940 136.930,154.940 138.800 M242.975 146.500 L 241.800 147.800 243.100 146.625 C 243.815 145.979,244.400 145.394,244.400 145.325 C 244.400 145.016,244.070 145.288,242.975 146.500 M238.305 148.283 C 238.802 148.379,239.522 148.375,239.905 148.275 C 240.287 148.175,239.880 148.096,239.000 148.101 C 238.120 148.105,237.807 148.187,238.305 148.283 M196.322 280.684 C 194.275 282.388,192.510 283.882,192.400 284.005 C 192.290 284.128,190.355 285.816,188.100 287.756 C 185.845 289.696,184.000 291.371,184.000 291.479 C 184.000 291.644,187.191 289.117,188.644 287.802 C 189.947 286.622,192.093 284.759,194.404 282.800 C 195.832 281.590,197.540 280.106,198.200 279.502 C 200.088 277.774,200.051 277.753,209.004 285.551 C 209.666 286.128,211.376 287.590,212.804 288.800 C 214.232 290.010,215.940 291.494,216.600 292.098 C 217.260 292.702,217.931 293.197,218.091 293.198 C 218.983 293.204,219.642 295.185,219.238 296.648 C 218.641 298.809,218.984 298.769,219.699 296.595 L 220.303 294.761 213.052 288.534 C 209.063 285.110,204.827 281.474,203.638 280.454 C 199.863 277.218,200.511 277.197,196.322 280.684 M181.709 293.190 C 179.818 294.936,179.785 294.137,182.035 300.983 C 182.756 303.173,183.404 304.789,183.476 304.572 C 183.548 304.356,182.976 302.303,182.204 300.011 C 180.843 295.970,180.481 294.001,181.100 294.000 C 181.538 293.999,183.760 292.027,183.555 291.821 C 183.459 291.725,182.628 292.341,181.709 293.190 M217.400 302.000 C 217.250 302.473,217.217 302.950,217.327 303.060 C 217.437 303.170,217.650 302.873,217.800 302.400 C 217.950 301.927,217.983 301.450,217.873 301.340 C 217.763 301.230,217.550 301.527,217.400 302.000 M216.229 305.629 C 215.858 306.761,215.637 307.770,215.737 307.870 C 215.837 307.970,216.225 307.129,216.600 306.000 C 216.975 304.871,217.196 303.863,217.092 303.759 C 216.988 303.654,216.599 304.496,216.229 305.629 M183.612 305.600 C 183.612 305.930,183.787 306.470,184.000 306.800 C 184.345 307.333,184.388 307.333,184.388 306.800 C 184.388 306.470,184.213 305.930,184.000 305.600 C 183.655 305.067,183.612 305.067,183.612 305.600 M184.400 307.922 C 184.400 308.099,184.908 309.044,185.530 310.022 C 186.499 311.548,187.528 312.584,190.332 314.860 C 190.624 315.097,190.771 315.676,190.658 316.146 C 190.209 318.009,189.957 322.997,190.342 322.398 C 191.318 320.883,191.066 314.741,190.000 314.049 C 188.311 312.953,185.935 310.341,185.347 308.936 C 184.817 307.667,184.400 307.220,184.400 307.922 M213.529 311.134 C 213.018 311.758,211.835 312.868,210.900 313.601 C 209.176 314.953,208.352 318.629,209.600 319.400 C 209.820 319.536,210.013 320.942,210.028 322.524 C 210.055 325.304,210.709 328.373,210.769 326.000 C 210.794 324.999,210.225 319.610,209.777 316.599 C 209.548 315.061,209.609 314.947,211.303 313.754 C 212.273 313.070,213.469 311.945,213.961 311.255 C 215.075 309.691,214.779 309.608,213.529 311.134 M189.419 326.300 C 189.268 328.005,188.990 330.570,188.801 332.000 C 188.612 333.430,188.256 336.310,188.009 338.400 C 187.763 340.490,187.398 343.550,187.200 345.200 C 187.002 346.850,186.642 349.910,186.400 352.000 C 185.904 356.291,185.454 360.017,184.743 365.708 C 184.442 368.119,184.398 369.758,184.628 369.988 C 184.857 370.217,185.019 370.023,185.050 369.480 C 185.112 368.374,185.853 361.680,186.409 357.200 C 186.641 355.330,187.087 351.460,187.401 348.600 C 188.091 342.304,188.636 337.666,189.187 333.400 C 189.754 329.005,190.164 323.200,189.906 323.200 C 189.789 323.200,189.570 324.595,189.419 326.300 M211.025 330.000 C 211.343 335.398,211.794 339.529,212.100 339.834 C 212.563 340.296,212.403 337.890,211.590 332.200 C 211.019 328.198,210.889 327.691,211.025 330.000 M212.615 344.200 C 212.716 345.960,212.965 348.750,213.169 350.400 C 214.357 360.016,214.975 366.092,214.987 368.262 C 214.994 369.616,215.135 370.640,215.300 370.538 C 215.722 370.277,215.673 365.662,215.214 362.477 C 215.002 361.005,214.637 358.090,214.403 356.000 C 213.147 344.788,212.347 339.503,212.615 344.200 M202.000 395.600 C 201.334 396.920,200.878 398.000,200.988 398.000 C 201.098 398.000,201.734 396.920,202.400 395.600 C 203.066 394.280,203.522 393.200,203.412 393.200 C 203.302 393.200,202.666 394.280,202.000 395.600 M199.434 398.543 C 199.721 399.291,200.800 399.441,200.800 398.733 C 200.800 398.477,200.682 398.385,200.537 398.530 C 200.392 398.675,200.028 398.589,199.728 398.340 C 199.296 397.982,199.235 398.025,199.434 398.543 " stroke="none" fill="#746474" fill-rule="evenodd"></path><path id="path2" d="M145.200 61.681 C 144.650 61.916,143.612 62.364,142.894 62.676 C 140.890 63.546,138.545 66.008,137.422 68.421 L 136.408 70.600 136.404 82.884 C 136.400 94.448,135.980 102.120,135.224 104.400 C 135.042 104.950,134.654 106.210,134.361 107.200 C 133.763 109.228,130.877 114.929,130.346 115.133 C 130.156 115.207,130.000 115.430,130.000 115.629 C 130.000 117.064,120.838 125.200,119.222 125.200 C 118.990 125.200,118.800 125.380,118.800 125.600 C 118.800 125.820,118.440 126.000,118.000 126.000 C 117.560 126.000,117.200 126.180,117.200 126.400 C 117.200 126.620,116.928 126.800,116.595 126.800 C 116.262 126.800,115.632 126.980,115.195 127.200 C 114.758 127.420,114.042 127.780,113.605 128.000 C 113.168 128.220,112.279 128.400,111.629 128.400 C 110.979 128.400,110.350 128.557,110.231 128.750 C 110.112 128.942,109.066 129.207,107.907 129.339 C 104.803 129.691,103.111 130.009,102.100 130.427 C 99.803 131.379,98.951 131.806,98.328 132.319 C 97.912 132.662,97.114 132.800,96.232 132.681 C 95.449 132.575,94.907 132.649,95.027 132.844 C 95.148 133.040,94.967 133.200,94.624 133.200 C 94.281 133.200,94.000 133.444,94.000 133.742 C 94.000 134.039,93.550 134.769,93.000 135.362 C 92.450 135.956,92.000 136.792,92.000 137.221 C 92.000 137.649,91.820 138.000,91.600 138.000 C 91.380 138.000,91.200 138.360,91.200 138.800 C 91.200 139.240,91.020 139.600,90.800 139.600 C 90.580 139.600,90.400 140.309,90.400 141.176 C 90.400 142.043,90.220 142.864,90.000 143.000 C 89.526 143.293,89.458 146.665,89.920 146.951 C 90.096 147.060,90.285 147.925,90.340 148.874 C 90.395 149.823,90.611 150.660,90.820 150.733 C 91.029 150.807,91.200 151.302,91.200 151.833 C 91.200 152.365,91.360 152.800,91.557 152.800 C 91.753 152.800,92.025 153.245,92.162 153.789 C 92.553 155.350,97.455 159.969,98.435 159.700 C 98.636 159.645,98.800 159.780,98.800 160.000 C 98.800 160.220,99.149 160.400,99.576 160.400 C 100.003 160.400,100.464 160.580,100.600 160.800 C 100.736 161.020,101.467 161.200,102.224 161.200 C 102.981 161.200,103.600 161.380,103.600 161.600 C 103.600 161.849,105.933 162.000,109.800 162.000 L 116.000 162.000 116.047 163.700 C 116.073 164.635,116.073 165.535,116.047 165.700 C 116.021 165.865,116.180 166.000,116.400 166.000 C 116.626 166.000,116.800 167.133,116.800 168.600 C 116.800 170.067,116.974 171.200,117.200 171.200 C 117.420 171.200,117.600 171.999,117.600 172.976 C 117.600 173.953,117.780 174.864,118.000 175.000 C 118.220 175.136,118.400 175.867,118.400 176.624 C 118.400 177.381,118.580 178.000,118.800 178.000 C 119.020 178.000,119.200 178.630,119.200 179.400 C 119.200 180.170,119.380 180.800,119.600 180.800 C 119.820 180.800,120.000 181.351,120.000 182.024 C 120.000 182.737,120.167 183.144,120.400 183.000 C 120.639 182.853,120.800 183.337,120.800 184.200 C 120.800 185.063,120.961 185.547,121.200 185.400 C 121.420 185.264,121.600 185.523,121.600 185.976 C 121.600 186.429,121.780 186.800,122.000 186.800 C 122.220 186.800,122.406 187.205,122.413 187.700 C 122.420 188.195,122.684 188.942,123.000 189.359 C 123.316 189.776,123.480 190.271,123.364 190.459 C 123.248 190.647,123.343 190.800,123.576 190.800 C 123.809 190.800,124.000 191.160,124.000 191.600 C 124.000 192.040,124.159 192.400,124.353 192.400 C 124.667 192.400,124.838 192.780,125.165 194.200 C 125.216 194.420,125.542 194.915,125.890 195.300 C 126.239 195.685,126.361 196.006,126.162 196.013 C 125.963 196.020,126.149 196.290,126.576 196.613 C 127.004 196.936,127.197 197.200,127.007 197.200 C 126.816 197.200,127.083 197.650,127.600 198.200 C 128.214 198.853,128.350 199.200,127.993 199.200 C 127.629 199.200,127.695 199.381,128.192 199.745 C 128.602 200.044,128.983 200.603,129.039 200.987 C 129.095 201.370,129.515 201.945,129.971 202.265 C 130.427 202.584,130.800 203.225,130.800 203.689 C 130.800 204.154,130.910 204.423,131.044 204.289 C 131.291 204.043,133.200 206.080,133.200 206.589 C 133.200 206.740,133.920 207.554,134.800 208.400 C 135.680 209.246,136.400 210.221,136.400 210.569 C 136.400 210.916,136.700 211.200,137.067 211.200 C 137.433 211.200,137.640 211.293,137.526 211.407 C 137.297 211.637,144.110 218.779,144.353 218.563 C 144.437 218.489,145.004 218.962,145.613 219.614 C 146.222 220.266,146.827 220.800,146.956 220.800 C 147.192 220.800,148.410 221.744,149.445 222.729 C 149.750 223.019,150.000 223.114,150.000 222.940 C 150.000 222.765,150.263 222.997,150.584 223.456 C 150.905 223.915,151.715 224.516,152.384 224.793 C 153.053 225.070,153.600 225.455,153.600 225.649 C 153.600 225.842,154.063 226.000,154.628 226.000 C 155.193 226.000,156.408 226.506,157.328 227.125 C 159.523 228.602,164.693 231.199,168.200 232.586 C 169.740 233.195,171.360 233.846,171.800 234.033 C 182.593 238.614,197.443 239.848,215.400 237.657 C 220.787 237.000,228.238 234.727,234.705 231.769 C 235.870 231.236,236.998 230.800,237.212 230.800 C 237.425 230.800,237.600 230.620,237.600 230.400 C 237.600 230.180,237.945 230.000,238.367 230.000 C 238.788 230.000,239.193 229.865,239.267 229.700 C 239.387 229.430,241.489 228.222,243.897 227.040 C 244.390 226.798,244.795 226.465,244.797 226.300 C 244.799 226.135,245.160 226.000,245.600 226.000 C 246.040 226.000,246.400 225.820,246.400 225.600 C 246.400 225.380,246.732 225.200,247.138 225.200 C 247.544 225.200,248.202 224.840,248.600 224.400 C 248.998 223.960,249.529 223.600,249.779 223.600 C 250.029 223.600,250.901 222.970,251.718 222.200 C 252.534 221.430,253.338 220.800,253.505 220.800 C 253.671 220.800,254.032 220.440,254.307 220.000 C 254.582 219.560,255.063 219.200,255.376 219.200 C 255.690 219.200,256.060 218.840,256.200 218.400 C 256.340 217.960,256.672 217.600,256.939 217.600 C 257.205 217.600,257.688 217.228,258.012 216.773 C 258.335 216.319,260.130 214.365,262.000 212.432 C 265.322 208.998,267.428 206.544,268.168 205.246 C 268.370 204.891,268.865 204.309,269.268 203.953 C 269.671 203.597,270.000 203.136,270.000 202.929 C 270.000 202.721,270.315 202.201,270.700 201.773 C 271.085 201.345,271.837 200.187,272.371 199.198 C 272.905 198.209,273.535 197.047,273.771 196.615 C 274.007 196.184,274.425 195.586,274.700 195.287 C 274.975 194.988,275.200 194.396,275.200 193.971 C 275.200 193.547,275.380 193.200,275.600 193.200 C 275.820 193.200,276.000 192.840,276.000 192.400 C 276.000 191.960,276.180 191.600,276.400 191.600 C 276.620 191.600,276.800 191.150,276.800 190.600 C 276.800 190.050,276.980 189.600,277.200 189.600 C 277.420 189.600,277.600 189.335,277.600 189.012 C 277.600 188.689,277.960 187.783,278.400 187.000 C 278.840 186.217,279.200 185.221,279.200 184.788 C 279.200 184.355,279.380 184.000,279.600 184.000 C 279.820 184.000,280.000 183.460,280.000 182.800 C 280.000 182.140,280.180 181.600,280.400 181.600 C 280.620 181.600,280.800 181.060,280.800 180.400 C 280.800 179.740,280.980 179.200,281.200 179.200 C 281.420 179.200,281.600 178.480,281.600 177.600 C 281.600 176.720,281.780 176.000,282.000 176.000 C 282.220 176.000,282.400 175.381,282.400 174.624 C 282.400 173.867,282.580 173.136,282.800 173.000 C 283.020 172.864,283.200 172.032,283.200 171.150 C 283.200 170.269,283.370 169.230,283.577 168.843 C 283.785 168.455,283.991 166.757,284.036 165.069 L 284.117 162.000 290.258 162.000 C 294.086 162.000,296.400 161.849,296.400 161.600 C 296.400 161.380,297.120 161.200,298.000 161.200 C 298.880 161.200,299.600 161.020,299.600 160.800 C 299.600 160.580,299.960 160.400,300.400 160.400 C 300.840 160.400,301.200 160.220,301.200 160.000 C 301.200 159.780,301.560 159.600,302.000 159.600 C 302.440 159.600,302.800 159.420,302.800 159.200 C 302.800 158.980,303.049 158.800,303.353 158.800 C 304.118 158.800,307.407 155.343,308.280 153.620 C 308.676 152.839,309.135 152.140,309.300 152.067 C 309.465 151.993,309.600 151.318,309.600 150.567 C 309.600 149.815,309.780 149.200,310.000 149.200 C 310.240 149.200,310.400 147.600,310.400 145.200 C 310.400 142.800,310.240 141.200,310.000 141.200 C 309.780 141.200,309.600 140.660,309.600 140.000 C 309.600 139.340,309.440 138.800,309.245 138.800 C 309.049 138.800,308.772 138.179,308.630 137.419 C 308.340 135.872,304.734 131.746,304.044 132.173 C 303.816 132.314,302.498 131.904,301.115 131.262 C 297.459 129.565,295.128 129.201,287.880 129.194 C 279.598 129.186,277.499 128.480,274.025 124.533 C 271.064 121.169,270.800 119.824,270.800 108.069 C 270.800 92.318,268.599 87.087,260.253 83.000 C 257.499 81.652,256.604 81.435,243.000 78.831 C 241.900 78.620,239.920 78.240,238.600 77.986 C 235.706 77.428,233.399 76.989,230.200 76.387 C 228.880 76.138,227.080 75.784,226.200 75.600 C 225.320 75.416,223.610 75.081,222.400 74.856 C 221.190 74.632,219.120 74.240,217.800 73.986 C 216.480 73.731,214.545 73.360,213.500 73.162 C 212.455 72.963,210.745 72.637,209.700 72.438 C 208.655 72.240,206.810 71.890,205.600 71.662 C 204.390 71.434,202.410 71.058,201.200 70.825 C 192.360 69.128,190.324 68.742,188.200 68.363 C 186.880 68.127,184.990 67.768,184.000 67.565 C 183.010 67.361,179.410 66.668,176.000 66.025 C 172.590 65.381,167.460 64.409,164.600 63.865 C 161.740 63.321,158.140 62.658,156.600 62.392 C 155.060 62.125,153.278 61.748,152.640 61.554 C 151.070 61.075,146.434 61.154,145.200 61.681 M169.505 109.553 C 169.887 109.748,170.689 110.135,171.287 110.414 C 175.528 112.393,175.440 119.564,171.146 121.981 C 168.973 123.204,153.707 123.228,151.712 122.012 C 146.393 118.769,147.105 111.996,153.000 109.752 C 154.442 109.203,168.485 109.034,169.505 109.553 M247.693 109.954 C 253.076 112.262,253.467 119.612,248.342 122.169 C 245.938 123.368,230.801 123.077,228.862 121.794 C 226.394 120.160,224.497 115.129,226.000 114.200 C 226.220 114.064,226.400 113.686,226.400 113.359 C 226.400 109.752,241.563 107.327,247.693 109.954 M164.372 129.386 C 170.077 132.336,170.038 145.122,164.316 148.043 C 159.020 150.745,154.731 146.926,154.468 139.273 C 154.188 131.165,158.838 126.524,164.372 129.386 M242.569 129.913 C 247.382 133.248,246.913 145.525,241.879 147.962 C 236.123 150.748,232.000 146.937,232.000 138.830 C 232.000 130.332,237.038 126.082,242.569 129.913 M182.372 174.900 C 183.157 175.175,184.340 175.894,185.000 176.498 C 185.660 177.102,186.425 177.597,186.700 177.598 C 186.975 177.599,187.200 177.736,187.200 177.902 C 187.200 178.069,187.785 178.440,188.500 178.729 C 189.215 179.017,190.113 179.421,190.495 179.626 C 190.877 179.832,191.631 180.000,192.171 180.000 C 192.711 180.000,193.247 180.153,193.363 180.340 C 194.079 181.499,209.067 180.785,209.827 179.556 C 209.948 179.360,210.319 179.200,210.652 179.200 C 211.215 179.200,214.114 177.380,215.663 176.054 C 217.032 174.881,219.573 174.294,220.945 174.834 C 222.897 175.602,224.800 177.163,224.800 177.997 C 224.800 178.413,224.980 178.864,225.200 179.000 C 227.280 180.286,223.772 185.816,219.300 188.300 C 215.700 190.300,213.262 191.234,209.000 192.247 C 206.945 192.736,192.720 192.880,192.257 192.417 C 192.028 192.188,191.257 192.000,190.544 192.000 C 189.831 192.000,189.136 191.820,189.000 191.600 C 188.864 191.380,188.234 191.200,187.600 191.200 C 186.966 191.200,186.336 191.020,186.200 190.800 C 186.064 190.580,185.603 190.400,185.176 190.400 C 184.749 190.400,184.400 190.220,184.400 190.000 C 184.400 189.780,184.085 189.596,183.700 189.591 C 183.315 189.586,182.550 189.230,182.000 188.800 C 181.450 188.370,180.846 188.014,180.658 188.009 C 180.190 187.997,177.197 185.643,176.143 184.459 C 173.588 181.590,175.150 176.383,179.000 174.936 C 180.619 174.328,180.733 174.326,182.372 174.900 M241.600 241.942 C 239.950 242.762,237.520 243.848,236.200 244.356 C 234.880 244.863,233.440 245.431,233.000 245.619 C 229.499 247.110,221.569 249.188,216.200 250.019 C 205.740 251.640,192.059 251.782,186.251 250.330 C 178.982 248.513,171.619 251.480,168.872 257.334 C 168.213 258.738,167.832 259.161,167.482 258.877 C 166.949 258.444,164.664 257.129,162.200 255.838 C 161.320 255.377,160.510 254.910,160.400 254.799 C 160.290 254.689,159.660 254.335,159.000 254.012 C 158.340 253.689,157.035 252.915,156.100 252.293 C 155.165 251.671,154.400 251.326,154.400 251.528 C 154.400 251.860,157.321 254.000,157.774 254.000 C 157.879 254.000,158.828 254.508,159.882 255.129 C 160.937 255.750,163.240 257.039,165.000 257.993 C 168.416 259.846,174.308 263.087,177.100 264.649 C 178.035 265.172,179.565 266.025,180.500 266.544 C 181.435 267.063,183.100 267.993,184.200 268.609 C 188.794 271.184,192.365 273.170,195.000 274.616 C 196.540 275.461,198.285 276.431,198.877 276.771 C 200.026 277.430,200.811 277.150,205.800 274.301 C 206.680 273.798,208.840 272.597,210.600 271.630 C 213.781 269.884,214.474 269.500,220.600 266.087 C 222.360 265.106,224.790 263.757,226.000 263.088 C 227.210 262.419,231.693 259.921,235.961 257.536 C 240.230 255.151,243.847 253.200,243.999 253.200 C 245.248 253.200,245.600 251.634,245.600 246.069 C 245.600 239.539,245.871 239.818,241.600 241.942 " stroke="none" fill="#eda570" fill-rule="evenodd"></path><path id="path3" d="M151.829 4.229 C 151.405 4.538,151.136 4.869,151.230 4.963 C 151.324 5.057,151.748 4.881,152.171 4.571 C 152.595 4.262,152.864 3.931,152.770 3.837 C 152.676 3.743,152.252 3.919,151.829 4.229 M265.606 9.890 C 265.600 10.379,267.930 11.803,268.237 11.497 C 268.326 11.408,267.904 11.080,267.299 10.768 C 266.695 10.456,266.068 10.021,265.906 9.801 C 265.723 9.550,265.610 9.584,265.606 9.890 M144.980 11.567 C 144.771 11.769,142.710 12.036,140.400 12.160 C 134.363 12.483,131.600 12.822,131.600 13.237 C 131.600 13.437,130.981 13.600,130.224 13.600 C 129.467 13.600,128.736 13.780,128.600 14.000 C 128.464 14.220,127.924 14.400,127.400 14.400 C 126.876 14.400,126.336 14.580,126.200 14.800 C 126.064 15.020,125.513 15.200,124.976 15.200 C 124.439 15.200,124.000 15.380,124.000 15.600 C 124.000 15.820,123.640 16.000,123.200 16.000 C 122.760 16.000,122.400 16.180,122.400 16.400 C 122.400 16.620,122.040 16.800,121.600 16.800 C 121.160 16.800,120.800 16.980,120.800 17.200 C 120.800 17.420,120.440 17.600,120.000 17.600 C 119.560 17.600,119.200 17.780,119.200 18.000 C 119.200 18.220,118.964 18.400,118.675 18.400 C 118.387 18.400,117.764 18.760,117.292 19.200 C 116.820 19.640,116.228 20.000,115.977 20.000 C 115.726 20.000,115.017 20.540,114.400 21.200 C 113.783 21.860,112.981 22.400,112.616 22.400 C 112.251 22.400,112.064 22.580,112.200 22.800 C 112.336 23.020,112.253 23.200,112.015 23.200 C 111.437 23.200,107.600 27.019,107.600 27.594 C 107.600 27.843,107.447 27.953,107.260 27.837 C 107.073 27.722,106.668 28.113,106.360 28.707 C 106.052 29.300,105.305 30.311,104.700 30.952 C 104.095 31.594,103.600 32.362,103.600 32.659 C 103.600 32.957,103.420 33.200,103.200 33.200 C 102.980 33.200,102.800 33.520,102.800 33.912 C 102.800 34.303,102.440 34.883,102.000 35.200 C 101.560 35.517,101.200 36.001,101.200 36.276 C 101.200 36.551,100.840 37.417,100.400 38.200 C 99.960 38.983,99.600 39.979,99.600 40.412 C 99.600 40.845,99.420 41.200,99.200 41.200 C 98.980 41.200,98.800 41.751,98.800 42.424 C 98.800 43.137,98.633 43.544,98.400 43.400 C 98.162 43.253,98.000 43.729,98.000 44.576 C 98.000 45.359,97.839 46.000,97.642 46.000 C 97.171 46.000,96.784 48.522,96.540 53.195 C 96.430 55.282,96.172 57.192,95.966 57.441 C 95.178 58.390,95.517 132.450,96.308 132.024 C 99.362 130.378,102.424 129.243,105.200 128.728 C 106.410 128.503,108.300 128.150,109.400 127.943 C 110.500 127.736,111.985 127.464,112.700 127.340 C 113.415 127.215,114.000 126.952,114.000 126.756 C 114.000 126.560,114.349 126.400,114.776 126.400 C 115.203 126.400,115.664 126.220,115.800 126.000 C 115.936 125.780,116.397 125.600,116.824 125.600 C 117.251 125.600,117.600 125.441,117.600 125.247 C 117.600 125.052,117.915 124.793,118.300 124.671 C 119.074 124.426,121.122 123.224,121.829 122.600 C 122.078 122.380,123.179 121.484,124.274 120.608 C 132.463 114.064,134.800 107.024,134.800 88.897 C 134.800 75.262,135.169 70.509,136.436 67.814 C 137.292 65.991,140.619 62.400,141.451 62.400 C 141.847 62.400,141.984 57.993,142.094 41.700 C 142.245 19.476,142.207 19.910,144.407 15.000 C 145.106 13.440,145.743 11.200,145.488 11.200 C 145.417 11.200,145.189 11.365,144.980 11.567 M269.400 12.747 C 270.060 13.156,270.666 13.434,270.748 13.364 C 271.068 13.090,269.613 12.000,268.929 12.002 C 268.392 12.004,268.516 12.200,269.400 12.747 M272.415 14.761 C 273.177 15.400,273.874 15.850,273.965 15.763 C 274.189 15.546,271.896 13.601,271.415 13.600 C 271.203 13.600,271.653 14.122,272.415 14.761 M274.400 16.357 C 274.400 16.554,274.685 16.824,275.033 16.957 C 276.011 17.333,276.108 17.251,275.457 16.600 C 274.777 15.920,274.400 15.833,274.400 16.357 M280.000 20.943 C 280.000 21.356,282.012 23.322,282.220 23.113 C 282.314 23.019,281.854 22.426,281.196 21.796 C 280.538 21.166,280.000 20.782,280.000 20.943 M286.603 28.200 C 287.497 29.823,289.120 31.813,289.357 31.577 C 289.538 31.396,288.745 30.289,286.794 28.000 L 285.942 27.000 286.603 28.200 M289.935 32.600 C 290.542 33.796,291.575 35.057,291.573 34.600 C 291.572 34.380,291.112 33.660,290.550 33.000 C 289.988 32.340,289.712 32.160,289.935 32.600 M302.000 60.953 C 302.000 61.283,302.180 61.664,302.400 61.800 C 302.620 61.936,302.800 61.777,302.800 61.447 C 302.800 61.117,302.620 60.736,302.400 60.600 C 302.180 60.464,302.000 60.623,302.000 60.953 M302.828 65.076 C 302.918 66.115,303.544 66.996,303.572 66.124 C 303.587 65.642,303.420 65.136,303.200 65.000 C 302.980 64.864,302.813 64.898,302.828 65.076 M303.902 95.500 C 303.958 108.205,304.052 121.570,304.112 125.200 C 304.172 128.830,304.261 118.435,304.310 102.100 C 304.360 85.765,304.265 72.400,304.100 72.400 C 303.935 72.400,303.846 82.795,303.902 95.500 M152.400 110.800 C 152.400 111.020,152.196 111.200,151.947 111.200 C 149.170 111.200,148.416 117.925,150.926 120.298 C 153.697 122.916,168.431 123.286,171.484 120.814 C 173.385 119.274,174.738 115.303,173.600 114.600 C 173.380 114.464,173.200 114.073,173.200 113.730 C 173.200 113.388,172.535 112.499,171.722 111.754 L 170.244 110.400 161.322 110.400 C 155.641 110.400,152.400 110.545,152.400 110.800 M228.400 112.000 C 225.027 115.373,226.583 120.646,231.322 121.900 C 233.736 122.539,243.958 122.558,246.154 121.927 C 250.459 120.692,252.371 117.025,250.548 113.500 C 249.019 110.542,248.471 110.400,238.605 110.400 L 230.000 110.400 228.400 112.000 M158.960 129.962 C 154.744 131.877,153.585 142.885,157.232 146.371 C 160.467 149.462,166.499 147.806,167.341 143.596 C 167.815 141.225,167.628 134.440,167.052 133.087 C 165.664 129.832,162.197 128.492,158.960 129.962 M237.000 129.664 C 233.687 130.872,232.800 132.759,232.800 138.593 C 232.800 145.753,234.195 147.800,239.074 147.800 C 243.466 147.800,245.200 145.238,245.200 138.747 C 245.200 131.705,241.783 127.920,237.000 129.664 M198.200 279.502 C 197.540 280.106,195.832 281.590,194.404 282.800 C 192.093 284.759,189.947 286.622,188.644 287.802 C 188.400 288.023,187.213 289.013,186.007 290.002 C 184.801 290.991,183.289 292.295,182.648 292.900 C 182.006 293.505,181.328 294.000,181.141 294.000 C 180.278 294.000,183.027 303.886,185.231 308.708 C 185.986 310.361,189.272 314.000,190.009 314.000 C 190.832 314.000,191.072 315.551,190.753 318.800 C 190.092 325.520,189.668 329.460,189.223 333.000 C 188.589 338.056,188.062 342.569,187.401 348.600 C 187.087 351.460,186.641 355.330,186.409 357.200 C 186.177 359.070,185.818 362.321,185.610 364.424 C 185.403 366.527,185.126 368.529,184.994 368.872 C 184.801 369.374,191.983 384.394,192.801 385.200 C 192.913 385.310,194.422 388.190,196.155 391.600 C 199.578 398.337,199.982 398.994,200.413 398.517 C 200.744 398.150,204.410 391.123,210.801 378.600 L 215.293 369.800 215.065 367.400 C 214.781 364.404,213.773 355.373,213.190 350.600 C 212.948 348.620,212.584 345.380,212.381 343.400 C 212.040 340.070,211.818 338.135,210.778 329.400 C 210.568 327.640,210.291 324.760,210.161 323.000 C 210.031 321.240,209.761 319.629,209.562 319.420 C 208.490 318.295,209.169 314.919,210.700 313.756 C 214.319 311.007,214.713 310.319,217.601 301.689 C 219.828 295.035,219.840 294.583,217.819 293.042 C 217.077 292.475,216.229 291.784,215.935 291.506 C 215.641 291.228,214.232 290.010,212.804 288.800 C 211.376 287.590,209.666 286.128,209.004 285.551 C 200.051 277.753,200.088 277.774,198.200 279.502 " stroke="none" fill="#5f5060" fill-rule="evenodd"></path><path id="path4" d="M129.959 271.232 C 130.288 272.302,130.617 273.116,130.691 273.042 C 131.007 272.727,130.265 269.634,129.834 269.468 C 129.499 269.340,129.535 269.850,129.959 271.232 M270.216 269.700 C 269.598 271.641,268.916 274.400,269.054 274.400 C 269.323 274.400,270.079 272.318,270.397 270.700 C 270.677 269.279,270.558 268.624,270.216 269.700 M131.840 275.602 C 132.439 276.703,132.993 277.540,133.071 277.463 C 133.243 277.290,131.208 273.600,130.941 273.600 C 130.836 273.600,131.240 274.501,131.840 275.602 M267.786 276.100 L 267.152 277.400 267.967 276.400 C 268.752 275.437,269.008 274.800,268.610 274.800 C 268.506 274.800,268.135 275.385,267.786 276.100 M265.046 280.846 C 264.025 282.648,263.259 284.192,263.343 284.277 C 263.428 284.361,264.333 282.956,265.354 281.154 C 266.375 279.352,267.141 277.808,267.057 277.723 C 266.972 277.639,266.067 279.044,265.046 280.846 M134.838 280.900 C 136.394 283.904,138.115 286.819,138.251 286.682 C 138.427 286.506,134.817 280.000,134.543 280.000 C 134.449 280.000,134.582 280.405,134.838 280.900 M193.570 282.700 L 192.600 283.800 193.800 282.800 C 194.460 282.250,195.075 281.755,195.167 281.700 C 195.258 281.645,195.155 281.600,194.936 281.600 C 194.718 281.600,194.103 282.095,193.570 282.700 M206.800 282.925 C 206.800 282.994,207.385 283.579,208.100 284.225 L 209.400 285.400 208.225 284.100 C 207.130 282.888,206.800 282.616,206.800 282.925 M262.214 285.835 C 261.841 286.404,261.627 286.961,261.739 287.072 C 261.850 287.183,262.229 286.718,262.581 286.037 C 263.359 284.533,263.144 284.415,262.214 285.835 M187.970 287.500 L 187.000 288.600 188.200 287.600 C 188.860 287.050,189.475 286.555,189.567 286.500 C 189.658 286.445,189.555 286.400,189.336 286.400 C 189.118 286.400,188.503 286.895,187.970 287.500 M138.986 288.300 C 139.335 289.015,139.706 289.600,139.810 289.600 C 140.208 289.600,139.952 288.963,139.167 288.000 L 138.352 287.000 138.986 288.300 M260.504 288.674 C 259.817 290.153,260.094 290.225,260.944 288.788 C 261.330 288.134,261.500 287.601,261.323 287.603 C 261.145 287.605,260.777 288.087,260.504 288.674 M184.975 290.100 L 183.800 291.400 185.100 290.225 C 186.312 289.130,186.584 288.800,186.275 288.800 C 186.206 288.800,185.621 289.385,184.975 290.100 M140.586 291.100 C 140.935 291.815,141.306 292.400,141.410 292.400 C 141.808 292.400,141.552 291.763,140.767 290.800 L 139.952 289.800 140.586 291.100 M258.882 291.700 C 258.451 292.415,257.649 293.810,257.099 294.800 C 256.550 295.790,254.800 298.850,253.211 301.600 C 249.898 307.335,249.111 308.800,249.347 308.800 C 249.510 308.800,252.042 304.481,254.505 300.000 C 255.171 298.790,255.850 297.620,256.016 297.400 C 256.181 297.180,256.807 296.100,257.408 295.000 C 258.008 293.900,258.851 292.415,259.282 291.700 C 259.713 290.985,259.975 290.400,259.865 290.400 C 259.755 290.400,259.313 290.985,258.882 291.700 M182.278 292.213 C 181.660 292.756,181.314 293.200,181.508 293.200 C 181.702 293.200,182.283 292.750,182.800 292.200 C 183.995 290.928,183.731 290.934,182.278 292.213 M142.164 293.899 C 142.524 294.613,143.380 296.143,144.065 297.299 C 145.444 299.623,146.378 301.245,147.638 303.500 C 148.098 304.325,148.661 305.180,148.887 305.400 C 149.272 305.774,148.484 304.251,146.457 300.700 C 145.985 299.875,145.240 298.570,144.800 297.800 C 144.360 297.030,143.623 295.725,143.162 294.900 C 142.089 292.978,141.300 292.187,142.164 293.899 M219.259 293.800 C 220.506 295.231,220.584 294.694,217.999 302.400 C 215.608 309.530,214.448 311.589,211.601 313.760 C 210.208 314.823,209.635 315.513,209.796 315.935 C 209.927 316.275,210.203 318.273,210.410 320.376 C 210.618 322.479,210.964 325.640,211.181 327.400 C 211.397 329.160,212.038 334.560,212.604 339.400 C 213.170 344.240,213.993 351.260,214.432 355.000 C 214.872 358.740,215.341 363.021,215.475 364.513 C 215.805 368.191,216.050 368.152,218.120 364.102 C 219.104 362.176,221.932 356.640,224.404 351.800 C 226.875 346.960,230.883 339.130,233.310 334.400 C 235.736 329.670,239.123 323.043,240.835 319.672 C 242.547 316.302,244.162 313.287,244.423 312.972 C 244.823 312.491,244.619 312.400,243.138 312.400 C 241.087 312.400,240.673 312.147,235.600 307.806 C 233.510 306.017,229.910 302.961,227.600 301.014 C 225.290 299.068,222.233 296.378,220.807 295.038 C 219.381 293.697,218.684 293.140,219.259 293.800 M179.398 294.970 C 178.786 295.845,161.337 310.728,159.883 311.615 C 158.442 312.494,155.239 312.679,154.487 311.927 C 154.226 311.666,153.897 311.570,153.755 311.712 C 153.613 311.854,153.950 312.177,154.504 312.429 C 155.087 312.695,156.010 313.840,156.692 315.144 C 163.492 328.145,168.358 337.553,172.441 345.600 C 174.506 349.670,176.287 353.090,176.398 353.200 C 176.509 353.310,178.193 356.550,180.140 360.400 C 182.086 364.250,183.811 367.541,183.973 367.713 C 184.271 368.031,184.834 364.522,185.597 357.600 C 185.827 355.510,186.187 352.450,186.397 350.800 C 186.937 346.544,187.435 342.289,188.597 332.000 C 189.156 327.050,189.791 321.795,190.007 320.323 C 190.708 315.551,190.618 315.108,188.681 313.742 C 187.735 313.076,186.393 311.672,185.697 310.622 C 184.383 308.638,179.821 295.413,180.226 294.759 C 180.595 294.161,179.826 294.357,179.398 294.970 M149.209 306.300 C 149.214 306.465,149.585 307.050,150.033 307.600 L 150.848 308.600 150.214 307.300 C 149.611 306.065,149.189 305.645,149.209 306.300 M151.101 309.404 C 151.539 310.234,153.200 311.895,153.200 311.504 C 153.200 311.383,152.632 310.681,151.938 309.942 C 151.244 309.204,150.867 308.962,151.101 309.404 M247.970 310.242 C 247.436 310.816,246.570 311.451,246.045 311.654 C 245.519 311.856,245.195 312.128,245.323 312.257 C 245.667 312.600,248.117 310.981,248.703 310.023 C 249.382 308.914,249.137 308.987,247.970 310.242 " stroke="none" fill="#7cd3eb" fill-rule="evenodd"></path><path id="path5" d="M140.919 247.715 C 140.655 247.982,140.205 248.403,139.919 248.651 C 138.889 249.546,138.000 250.821,138.000 251.405 C 138.000 251.732,137.820 252.000,137.600 252.000 C 137.380 252.000,137.200 252.360,137.200 252.800 C 137.200 253.240,137.020 253.600,136.800 253.600 C 136.580 253.600,136.400 253.960,136.400 254.400 C 136.400 254.840,136.220 255.200,136.000 255.200 C 135.780 255.200,135.600 255.560,135.600 256.000 C 135.600 256.440,135.420 256.800,135.200 256.800 C 134.980 256.800,134.800 257.160,134.800 257.600 C 134.800 258.040,134.649 258.400,134.464 258.400 C 134.279 258.400,133.890 259.120,133.600 260.000 C 133.310 260.880,132.921 261.600,132.736 261.600 C 132.551 261.600,132.400 261.971,132.400 262.424 C 132.400 262.877,132.220 263.136,132.000 263.000 C 131.780 262.864,131.600 263.123,131.600 263.576 C 131.600 264.029,131.420 264.400,131.200 264.400 C 130.980 264.400,130.800 264.760,130.800 265.200 C 130.800 265.640,130.658 266.000,130.485 266.000 C 130.312 266.000,130.140 266.402,130.103 266.894 C 130.066 267.386,129.848 267.851,129.618 267.927 C 129.008 268.131,129.107 269.189,129.759 269.439 C 130.066 269.557,130.439 270.466,130.588 271.459 C 130.737 272.452,131.385 274.158,132.029 275.250 C 132.673 276.342,133.200 277.302,133.200 277.385 C 133.200 277.467,133.978 278.854,134.929 280.467 C 135.880 282.080,137.204 284.390,137.870 285.600 C 138.537 286.810,139.469 288.475,139.941 289.300 C 140.413 290.125,141.160 291.430,141.600 292.200 C 142.040 292.970,142.760 294.230,143.200 295.000 C 143.640 295.770,144.360 297.030,144.800 297.800 C 145.240 298.570,145.960 299.830,146.400 300.600 C 146.840 301.370,147.580 302.675,148.045 303.500 C 151.691 309.972,152.225 310.685,154.325 311.900 C 155.631 312.656,158.417 312.508,159.898 311.606 C 161.386 310.698,177.780 296.688,180.227 294.233 C 181.122 293.335,183.988 290.800,186.596 288.600 C 189.205 286.400,191.532 284.420,191.769 284.200 C 192.006 283.980,193.370 282.810,194.800 281.600 C 196.230 280.390,197.919 278.927,198.552 278.350 L 199.705 277.300 197.231 275.850 C 195.870 275.052,194.708 274.400,194.649 274.400 C 194.589 274.400,192.664 273.348,190.370 272.062 C 185.129 269.124,183.094 267.986,180.700 266.656 C 179.655 266.075,178.035 265.172,177.100 264.649 C 174.308 263.087,168.416 259.846,165.000 257.993 C 163.240 257.039,160.990 255.793,160.000 255.225 C 159.010 254.657,157.690 253.930,157.066 253.610 C 155.456 252.784,153.911 251.268,154.201 250.798 C 154.336 250.579,154.077 250.400,153.624 250.400 C 153.171 250.400,152.800 250.220,152.800 250.000 C 152.800 249.780,152.440 249.600,152.000 249.600 C 151.560 249.600,151.200 249.420,151.200 249.200 C 151.200 248.980,150.975 248.796,150.700 248.791 C 150.425 248.786,149.750 248.430,149.200 248.000 C 148.011 247.070,141.772 246.856,140.919 247.715 M251.400 247.724 C 250.960 247.986,250.510 248.290,250.400 248.400 C 249.914 248.886,248.356 249.600,247.782 249.600 C 247.436 249.600,247.264 249.780,247.400 250.000 C 247.536 250.220,247.286 250.400,246.845 250.400 C 246.373 250.400,245.829 250.839,245.522 251.470 C 245.235 252.059,244.460 252.836,243.800 253.197 C 243.140 253.559,239.090 255.808,234.800 258.195 C 230.510 260.582,226.280 262.933,225.400 263.420 C 224.520 263.906,222.360 265.107,220.600 266.087 C 214.383 269.550,213.769 269.891,210.600 271.630 C 208.840 272.597,206.680 273.798,205.800 274.301 C 204.920 274.804,203.435 275.608,202.500 276.087 C 200.339 277.196,200.374 277.421,203.046 279.600 C 204.260 280.590,205.557 281.674,205.927 282.010 C 206.923 282.913,212.267 287.507,214.987 289.800 C 216.293 290.900,218.629 292.991,220.180 294.446 C 221.731 295.902,224.260 298.161,225.800 299.466 C 227.340 300.771,231.030 303.912,234.000 306.444 C 240.809 312.251,241.035 312.400,243.028 312.400 C 247.041 312.400,248.103 311.061,257.307 294.400 C 257.975 293.190,258.816 291.750,259.175 291.200 C 259.535 290.650,260.092 289.660,260.414 289.000 C 260.735 288.340,261.089 287.710,261.199 287.600 C 261.408 287.392,261.804 286.711,263.503 283.632 C 264.059 282.624,265.551 279.995,266.818 277.790 C 268.084 275.584,269.326 272.974,269.577 271.990 C 269.828 271.005,270.238 269.791,270.489 269.292 C 270.832 268.607,270.828 268.268,270.472 267.912 C 270.212 267.652,270.000 267.116,270.000 266.720 C 270.000 266.324,269.820 266.000,269.600 266.000 C 269.380 266.000,269.200 265.655,269.200 265.233 C 269.200 264.812,269.065 264.407,268.900 264.333 C 268.468 264.141,266.800 260.828,266.800 260.162 C 266.800 259.853,266.620 259.600,266.400 259.600 C 266.180 259.600,266.000 259.330,266.000 259.000 C 266.000 258.670,265.820 258.400,265.600 258.400 C 265.380 258.400,265.200 258.040,265.200 257.600 C 265.200 257.160,265.020 256.800,264.800 256.800 C 264.580 256.800,264.400 256.440,264.400 256.000 C 264.400 255.560,264.220 255.200,264.000 255.200 C 263.780 255.200,263.600 254.840,263.600 254.400 C 263.600 253.960,263.420 253.600,263.200 253.600 C 262.980 253.600,262.800 253.240,262.800 252.800 C 262.800 252.360,262.620 252.000,262.400 252.000 C 262.180 252.000,262.000 251.640,262.000 251.200 C 262.000 250.760,261.820 250.400,261.600 250.400 C 261.380 250.400,261.200 250.029,261.200 249.576 C 261.200 249.123,261.020 248.864,260.800 249.000 C 260.580 249.136,260.400 248.956,260.400 248.600 C 260.400 248.244,260.235 248.055,260.032 248.180 C 259.830 248.305,259.393 248.136,259.061 247.804 C 258.316 247.059,252.617 246.999,251.400 247.724 " stroke="none" fill="#d3ebfb" fill-rule="evenodd"></path><path id="path6" d="M96.600 279.600 C 96.464 279.820,95.913 280.000,95.376 280.000 C 94.839 280.000,94.400 280.180,94.400 280.400 C 94.400 280.620,93.860 280.800,93.200 280.800 C 92.540 280.800,92.000 280.980,92.000 281.200 C 92.000 281.420,91.460 281.600,90.800 281.600 C 90.140 281.600,89.600 281.780,89.600 282.000 C 89.600 282.220,89.208 282.400,88.728 282.400 C 87.808 282.400,85.472 283.060,84.305 283.649 C 83.923 283.842,83.259 284.000,82.829 284.000 C 82.399 284.000,81.936 284.180,81.800 284.400 C 81.664 284.620,81.124 284.800,80.600 284.800 C 80.076 284.800,79.536 284.980,79.400 285.200 C 79.264 285.420,78.623 285.600,77.976 285.600 C 77.329 285.600,76.800 285.780,76.800 286.000 C 76.800 286.220,76.260 286.400,75.600 286.400 C 74.940 286.400,74.400 286.580,74.400 286.800 C 74.400 287.020,73.770 287.200,73.000 287.200 C 72.230 287.200,71.600 287.380,71.600 287.600 C 71.600 287.820,71.161 288.000,70.624 288.000 C 70.087 288.000,69.536 288.180,69.400 288.400 C 69.264 288.620,68.803 288.800,68.376 288.800 C 67.949 288.800,67.600 288.980,67.600 289.200 C 67.600 289.420,67.240 289.600,66.800 289.600 C 66.360 289.600,66.000 289.780,66.000 290.000 C 66.000 290.220,65.640 290.400,65.200 290.400 C 64.760 290.400,64.398 290.535,64.395 290.700 C 64.393 290.865,63.718 291.325,62.895 291.722 C 62.073 292.118,60.500 293.243,59.400 294.221 C 58.300 295.198,57.085 296.101,56.700 296.226 C 56.315 296.351,56.000 296.722,56.000 297.051 C 56.000 297.379,55.820 297.536,55.600 297.400 C 55.380 297.264,55.200 297.343,55.200 297.576 C 55.200 297.809,54.919 298.315,54.576 298.700 C 51.988 301.603,51.200 302.624,51.200 303.078 C 51.200 303.365,51.053 303.600,50.873 303.600 C 50.447 303.600,47.200 310.094,47.200 310.946 C 47.200 311.306,47.020 311.600,46.800 311.600 C 46.580 311.600,46.400 312.140,46.400 312.800 C 46.400 313.460,46.220 314.000,46.000 314.000 C 45.780 314.000,45.600 314.594,45.600 315.320 C 45.600 316.046,45.375 316.865,45.100 317.140 C 44.368 317.872,44.368 386.056,45.100 386.300 C 45.375 386.392,45.600 386.724,45.600 387.038 C 45.600 387.861,47.247 391.265,48.086 392.175 C 48.479 392.602,48.800 393.100,48.800 393.282 C 48.800 393.774,51.307 396.115,52.534 396.768 C 53.120 397.080,53.600 397.485,53.600 397.668 C 53.600 397.850,53.960 398.000,54.400 398.000 C 54.840 398.000,55.200 398.180,55.200 398.400 C 55.200 398.620,55.560 398.800,56.000 398.800 C 56.440 398.800,56.800 398.980,56.800 399.200 C 56.800 399.420,57.153 399.600,57.585 399.600 C 58.360 399.600,58.373 399.044,58.495 359.700 L 58.619 319.800 59.696 317.080 C 63.006 308.714,69.273 302.699,77.000 300.472 C 79.284 299.814,87.506 297.255,89.400 296.613 C 90.280 296.315,92.290 295.685,93.866 295.213 C 97.390 294.158,97.264 294.488,97.170 286.554 C 97.128 283.002,97.219 279.894,97.371 279.648 C 97.523 279.401,97.467 279.200,97.247 279.200 C 97.027 279.200,96.736 279.380,96.600 279.600 M339.688 293.592 C 339.960 294.028,340.452 294.488,340.782 294.614 C 341.112 294.741,340.949 294.384,340.421 293.822 C 339.269 292.597,339.017 292.517,339.688 293.592 M343.863 297.437 C 344.630 298.228,345.340 298.794,345.439 298.694 C 345.652 298.482,343.182 296.000,342.757 296.000 C 342.598 296.000,343.095 296.647,343.863 297.437 M355.389 352.800 C 355.389 368.310,355.439 374.655,355.500 366.900 C 355.561 359.145,355.561 346.455,355.500 338.700 C 355.439 330.945,355.389 337.290,355.389 352.800 M350.700 393.287 C 349.729 394.502,349.817 395.133,350.800 394.000 C 351.240 393.493,351.600 392.925,351.600 392.739 C 351.600 392.241,351.474 392.317,350.700 393.287 " stroke="none" fill="#0474a3" fill-rule="evenodd"></path><path id="path7" d="M270.447 270.600 C 270.377 271.767,269.320 274.109,267.016 278.200 C 265.056 281.682,262.722 285.754,261.914 287.100 C 261.486 287.815,261.308 288.400,261.521 288.400 C 261.733 288.400,262.010 288.085,262.136 287.700 C 262.262 287.315,262.848 286.190,263.439 285.200 C 264.030 284.210,264.823 282.860,265.201 282.200 C 265.579 281.540,266.421 280.100,267.072 279.000 C 269.513 274.876,270.866 271.718,270.691 270.548 L 270.520 269.400 270.447 270.600 M129.606 271.033 C 129.609 271.455,129.795 272.070,130.018 272.400 C 130.315 272.838,130.352 272.676,130.156 271.800 C 129.827 270.329,129.598 270.010,129.606 271.033 M132.600 277.600 C 132.941 278.260,133.311 278.800,133.421 278.800 C 133.531 278.800,133.341 278.260,133.000 277.600 C 132.659 276.940,132.289 276.400,132.179 276.400 C 132.069 276.400,132.259 276.940,132.600 277.600 M134.200 280.400 C 134.541 281.060,134.911 281.600,135.021 281.600 C 135.131 281.600,134.941 281.060,134.600 280.400 C 134.259 279.740,133.889 279.200,133.779 279.200 C 133.669 279.200,133.859 279.740,134.200 280.400 M135.403 282.800 C 135.569 283.350,136.020 284.250,136.405 284.800 C 137.456 286.300,139.122 289.209,139.899 290.900 C 140.278 291.725,140.726 292.400,140.894 292.400 C 141.062 292.400,141.204 292.625,141.209 292.900 C 141.214 293.175,141.586 293.850,142.036 294.400 L 142.854 295.400 142.369 294.400 C 141.749 293.121,135.558 282.266,135.297 282.000 C 135.189 281.890,135.237 282.250,135.403 282.800 M260.377 289.666 C 260.109 290.180,259.448 291.365,258.907 292.300 C 258.366 293.235,258.100 294.000,258.315 294.000 C 258.531 294.000,258.810 293.685,258.936 293.300 C 259.062 292.915,259.632 291.814,260.203 290.853 C 260.773 289.893,261.156 289.022,261.053 288.919 C 260.949 288.816,260.646 289.152,260.377 289.666 M255.420 298.420 C 254.621 299.784,254.048 300.981,254.147 301.080 C 254.246 301.179,254.981 300.144,255.780 298.780 C 256.579 297.416,257.152 296.219,257.053 296.120 C 256.954 296.021,256.219 297.056,255.420 298.420 M144.418 298.600 C 144.418 298.820,144.770 299.450,145.200 300.000 C 145.630 300.550,145.982 300.820,145.982 300.600 C 145.982 300.380,145.630 299.750,145.200 299.200 C 144.770 298.650,144.418 298.380,144.418 298.600 M146.018 301.400 C 146.018 301.620,146.370 302.250,146.800 302.800 C 147.230 303.350,147.582 303.620,147.582 303.400 C 147.582 303.180,147.230 302.550,146.800 302.000 C 146.370 301.450,146.018 301.180,146.018 301.400 M251.986 304.469 C 248.607 310.343,248.045 311.069,246.090 312.074 C 244.312 312.987,244.044 313.353,241.577 318.222 C 240.135 321.070,236.601 327.990,233.723 333.600 C 230.845 339.210,226.560 347.580,224.200 352.200 C 221.841 356.820,219.105 362.176,218.120 364.102 C 217.136 366.028,216.166 367.503,215.965 367.379 C 215.764 367.254,215.600 367.513,215.600 367.953 C 215.600 369.946,216.540 368.812,219.123 363.705 C 220.654 360.677,223.430 355.230,225.292 351.600 C 235.315 332.061,240.396 322.098,242.573 317.714 C 243.927 314.989,245.249 312.822,245.562 312.814 C 247.188 312.773,249.253 310.391,251.990 305.400 C 252.714 304.080,253.488 302.771,253.710 302.490 C 253.932 302.210,254.014 301.881,253.893 301.759 C 253.771 301.638,252.913 302.857,251.986 304.469 M147.640 304.200 C 147.710 305.477,151.931 311.416,153.314 312.183 C 154.890 313.058,155.514 314.068,159.876 322.800 C 160.920 324.890,161.915 326.660,162.087 326.733 C 162.259 326.807,162.400 327.176,162.400 327.553 C 162.400 327.931,162.565 328.411,162.766 328.620 C 163.111 328.977,164.968 332.537,172.041 346.400 C 173.668 349.590,175.135 352.260,175.300 352.333 C 175.465 352.407,175.600 352.797,175.600 353.200 C 175.600 353.603,175.735 353.993,175.900 354.067 C 176.065 354.140,177.910 357.574,180.000 361.698 C 183.362 368.332,184.400 370.023,184.400 368.869 C 184.400 368.688,183.635 367.113,182.699 365.369 C 181.764 363.626,180.014 360.220,178.810 357.800 C 177.606 355.380,176.526 353.310,176.409 353.200 C 176.292 353.090,174.506 349.670,172.441 345.600 C 170.376 341.530,167.519 335.950,166.092 333.200 C 162.355 325.996,158.055 317.747,156.710 315.200 C 155.898 313.664,155.023 312.680,153.810 311.938 C 152.318 311.026,149.222 307.108,149.191 306.092 C 149.186 305.932,148.830 305.350,148.400 304.800 C 147.970 304.250,147.628 303.980,147.640 304.200 " stroke="none" fill="#58c8ec" fill-rule="evenodd"></path><path id="path8" d="M143.278 61.656 C 140.940 62.814,138.289 65.384,136.941 67.800 L 135.825 69.800 135.568 85.800 C 135.293 102.990,135.063 104.864,132.566 110.251 C 127.680 120.796,119.165 126.648,105.000 129.195 C 103.460 129.471,101.123 130.216,99.806 130.849 C 98.489 131.482,97.094 132.000,96.706 132.000 C 96.318 132.000,96.000 132.180,96.000 132.400 C 96.000 132.915,97.876 132.924,98.193 132.411 C 98.406 132.066,99.577 131.475,102.200 130.386 C 103.115 130.007,104.881 129.683,107.907 129.339 C 109.066 129.207,110.112 128.942,110.231 128.750 C 110.350 128.557,110.979 128.400,111.629 128.400 C 112.279 128.400,113.213 128.192,113.705 127.938 C 115.582 126.967,116.007 126.800,116.595 126.800 C 116.928 126.800,117.200 126.620,117.200 126.400 C 117.200 126.180,117.560 126.000,118.000 126.000 C 118.440 126.000,118.800 125.820,118.800 125.600 C 118.800 125.380,118.990 125.200,119.222 125.200 C 120.838 125.200,130.000 117.064,130.000 115.629 C 130.000 115.430,130.156 115.207,130.346 115.133 C 130.877 114.929,133.763 109.228,134.361 107.200 C 134.654 106.210,135.042 104.950,135.224 104.400 C 135.980 102.120,136.400 94.448,136.404 82.884 L 136.408 70.600 137.422 68.421 C 137.980 67.222,139.146 65.567,140.013 64.742 C 141.467 63.359,142.226 62.918,145.319 61.656 C 146.647 61.115,151.001 61.054,152.640 61.554 C 153.278 61.748,155.060 62.125,156.600 62.392 C 158.140 62.658,161.740 63.321,164.600 63.865 C 167.460 64.409,172.590 65.381,176.000 66.025 C 179.410 66.668,183.010 67.361,184.000 67.565 C 189.136 68.620,190.770 68.875,191.261 68.698 C 191.557 68.590,191.080 68.375,190.200 68.220 C 189.320 68.064,186.800 67.590,184.600 67.167 C 182.400 66.743,179.610 66.209,178.400 65.979 C 177.190 65.750,175.390 65.405,174.400 65.213 C 173.410 65.022,171.430 64.660,170.000 64.409 C 168.570 64.157,166.770 63.790,166.000 63.592 C 165.230 63.395,163.970 63.138,163.200 63.021 C 161.222 62.723,157.747 62.072,155.400 61.561 C 151.279 60.663,145.187 60.711,143.278 61.656 M192.033 68.955 C 192.125 69.040,193.820 69.412,195.800 69.781 C 197.780 70.150,200.255 70.621,201.300 70.826 C 202.345 71.032,204.055 71.363,205.100 71.562 C 206.145 71.760,208.080 72.131,209.400 72.386 C 210.720 72.640,212.790 73.034,214.000 73.262 C 215.210 73.490,217.010 73.831,218.000 74.019 C 218.990 74.208,220.880 74.565,222.200 74.813 C 223.520 75.062,225.320 75.416,226.200 75.600 C 227.080 75.784,228.880 76.138,230.200 76.387 C 234.258 77.151,239.907 78.227,242.900 78.807 C 244.055 79.031,247.790 79.751,251.200 80.409 C 267.103 83.473,270.800 88.690,270.800 108.069 C 270.800 119.824,271.064 121.169,274.025 124.533 C 277.499 128.480,279.598 129.186,287.880 129.194 C 294.985 129.201,297.493 129.573,300.771 131.109 C 303.021 132.162,304.972 132.601,304.578 131.965 C 304.454 131.764,304.009 131.600,303.589 131.600 C 303.168 131.600,302.054 131.195,301.112 130.700 C 298.148 129.142,296.135 128.836,288.719 128.818 C 284.379 128.807,281.205 128.623,280.519 128.344 C 277.372 127.061,276.613 126.608,275.246 125.200 C 273.748 123.656,272.430 121.336,271.634 118.840 C 271.368 118.008,271.198 113.428,271.196 107.040 C 271.190 93.583,270.331 90.620,265.005 85.687 C 260.975 81.955,259.055 81.230,247.800 79.189 C 245.838 78.834,245.227 78.716,241.600 77.991 C 240.610 77.793,238.810 77.453,237.600 77.236 C 236.390 77.018,234.410 76.642,233.200 76.399 C 229.949 75.748,227.598 75.308,225.800 75.015 C 224.920 74.871,223.480 74.598,222.600 74.409 C 220.071 73.865,217.149 73.298,209.000 71.768 C 204.820 70.983,199.626 69.994,197.457 69.570 C 193.734 68.843,191.659 68.608,192.033 68.955 M153.000 109.752 C 147.105 111.996,146.393 118.769,151.712 122.012 C 153.707 123.228,168.973 123.204,171.146 121.981 C 175.440 119.564,175.528 112.393,171.287 110.414 C 170.689 110.135,169.887 109.748,169.505 109.553 C 168.485 109.034,154.442 109.203,153.000 109.752 M229.800 110.029 C 227.978 110.937,226.400 112.483,226.400 113.359 C 226.400 113.686,226.220 114.064,226.000 114.200 C 224.497 115.129,226.394 120.160,228.862 121.794 C 230.801 123.077,245.938 123.368,248.342 122.169 C 253.467 119.612,253.076 112.262,247.693 109.954 C 245.017 108.807,232.144 108.861,229.800 110.029 M170.792 110.701 C 175.155 112.893,175.077 119.649,170.664 121.743 C 168.135 122.943,153.975 122.696,151.787 121.414 C 147.346 118.811,147.956 112.109,152.800 110.289 C 154.466 109.663,169.407 110.005,170.792 110.701 M248.253 110.652 C 252.621 112.725,252.559 119.490,248.152 121.623 C 246.577 122.386,245.854 122.437,238.294 122.323 L 230.135 122.200 228.703 121.107 C 224.905 118.207,225.856 111.325,230.200 110.284 C 232.536 109.725,246.916 110.018,248.253 110.652 M158.155 129.562 C 153.009 132.700,152.875 144.436,157.949 147.654 C 163.636 151.260,168.423 147.079,168.313 138.600 L 168.262 134.600 168.004 139.000 C 167.587 146.115,165.016 149.130,160.145 148.216 C 155.518 147.348,153.045 138.463,155.808 132.639 C 158.004 128.012,164.840 128.166,167.133 132.893 C 167.588 133.832,167.969 134.312,167.980 133.959 C 168.091 130.380,161.588 127.469,158.155 129.562 M235.639 129.633 C 234.198 130.511,232.836 131.938,232.813 132.591 C 232.806 132.806,233.342 132.324,234.005 131.521 C 235.429 129.792,237.431 129.032,239.840 129.303 C 240.800 129.412,241.488 129.343,241.369 129.150 C 240.935 128.448,237.045 128.776,235.639 129.633 M243.052 130.850 C 245.020 132.973,245.200 133.619,245.200 138.587 C 245.200 145.765,242.833 149.029,238.177 148.274 C 233.796 147.563,232.600 145.476,232.600 138.538 C 232.600 135.643,232.468 133.483,232.306 133.738 C 231.820 134.503,231.957 143.061,232.475 144.281 C 234.742 149.615,241.763 150.278,244.606 145.426 C 245.762 143.453,246.110 134.501,245.100 132.695 C 244.319 131.298,243.480 130.363,242.604 129.913 C 242.054 129.630,242.195 129.926,243.052 130.850 M93.200 155.903 C 93.200 156.321,95.937 159.013,96.118 158.773 C 96.189 158.678,95.562 157.917,94.724 157.082 C 93.886 156.247,93.200 155.716,93.200 155.903 M179.000 174.936 C 175.150 176.383,173.588 181.590,176.143 184.459 C 177.197 185.643,180.190 187.997,180.658 188.009 C 180.846 188.014,181.450 188.370,182.000 188.800 C 182.550 189.230,183.315 189.586,183.700 189.591 C 184.085 189.596,184.400 189.780,184.400 190.000 C 184.400 190.220,184.749 190.400,185.176 190.400 C 185.603 190.400,186.064 190.580,186.200 190.800 C 186.336 191.020,186.966 191.200,187.600 191.200 C 188.234 191.200,188.864 191.380,189.000 191.600 C 189.136 191.820,189.831 192.000,190.544 192.000 C 191.257 192.000,192.028 192.188,192.257 192.417 C 192.720 192.880,206.945 192.736,209.000 192.247 C 213.262 191.234,215.700 190.300,219.300 188.300 C 223.772 185.816,227.280 180.286,225.200 179.000 C 224.980 178.864,224.800 178.413,224.800 177.997 C 224.800 177.163,222.897 175.602,220.945 174.834 C 219.573 174.294,217.032 174.881,215.663 176.054 C 214.114 177.380,211.215 179.200,210.652 179.200 C 210.319 179.200,209.948 179.360,209.827 179.556 C 209.067 180.785,194.079 181.499,193.363 180.340 C 193.247 180.153,192.711 180.000,192.171 180.000 C 191.631 180.000,190.877 179.832,190.495 179.626 C 190.113 179.421,189.215 179.017,188.500 178.729 C 187.785 178.440,187.200 178.069,187.200 177.902 C 187.200 177.736,186.975 177.599,186.700 177.598 C 186.425 177.597,185.660 177.102,185.000 176.498 C 182.995 174.664,181.063 174.161,179.000 174.936 M135.293 209.600 C 135.762 210.351,136.400 210.680,136.400 210.171 C 136.400 209.873,135.325 208.800,135.025 208.800 C 134.898 208.800,135.018 209.160,135.293 209.600 M154.400 238.581 L 154.400 251.162 156.100 252.293 C 157.035 252.915,158.340 253.689,159.000 254.012 C 159.660 254.335,160.290 254.689,160.400 254.799 C 160.510 254.910,161.320 255.377,162.200 255.838 C 164.664 257.129,166.949 258.444,167.482 258.877 C 167.832 259.161,168.213 258.738,168.872 257.334 C 171.619 251.480,178.982 248.513,186.251 250.330 C 192.059 251.782,205.740 251.640,216.200 250.019 C 221.569 249.188,229.499 247.110,233.000 245.619 C 233.440 245.431,234.880 244.863,236.200 244.356 C 237.520 243.849,240.001 242.751,241.713 241.917 C 243.425 241.083,245.000 240.400,245.213 240.400 C 245.448 240.400,245.600 237.576,245.600 233.200 C 245.600 228.667,245.452 226.000,245.200 226.000 C 244.980 226.000,244.799 226.135,244.797 226.300 C 244.795 226.465,244.390 226.798,243.897 227.040 C 241.489 228.222,239.387 229.430,239.267 229.700 C 239.193 229.865,238.788 230.000,238.367 230.000 C 237.945 230.000,237.600 230.180,237.600 230.400 C 237.600 230.620,237.425 230.800,237.212 230.800 C 236.998 230.800,235.870 231.236,234.705 231.769 C 228.238 234.727,220.787 237.000,215.400 237.657 C 202.760 239.199,196.213 239.269,187.400 237.956 C 182.500 237.226,174.702 235.265,171.800 234.033 C 171.360 233.846,169.740 233.195,168.200 232.586 C 164.693 231.199,159.523 228.602,157.328 227.125 C 154.245 225.051,154.400 224.446,154.400 238.581 " stroke="none" fill="#bc846c" fill-rule="evenodd"></path></g></svg>